<svg xmlns="http://www.w3.org/2000/svg" xmlns:xlink="http://www.w3.org/1999/xlink" width="40" height="40" viewBox="0 0 40 40">
  <defs>
    <clipPath id="clip-path">
      <rect id="Rectangle_781" data-name="Rectangle 781" width="40" height="40" fill="#841890"/>
    </clipPath>
  </defs>
  <g id="Mask_Group_50" data-name="Mask Group 50" clip-path="url(#clip-path)">
    <g id="covid-19" transform="translate(3.757 0)">
      <path id="Path_1888" data-name="Path 1888" d="M15.656,16.869v.626a.586.586,0,0,0,1.172,0v-.626a.586.586,0,0,0-1.172,0Z" transform="translate(-3.757 0)" fill="#841890"/>
      <path id="Path_1889" data-name="Path 1889" d="M23.172,16.869v.626a.586.586,0,0,0,1.172,0v-.626a.586.586,0,0,0-1.172,0Z" transform="translate(-3.757 0)" fill="#841890"/>
      <path id="Path_1890" data-name="Path 1890" d="M17.437,14.222a.586.586,0,0,0-.711-.426l-2.5.626a.586.586,0,1,0,.284,1.137l2.505-.626A.586.586,0,0,0,17.437,14.222Z" transform="translate(-3.757 0)" fill="#841890"/>
      <path id="Path_1891" data-name="Path 1891" d="M25.637,15.576a.586.586,0,0,0,.142-1.155l-2.5-.626a.586.586,0,1,0-.284,1.137l2.505.626A.586.586,0,0,0,25.637,15.576Z" transform="translate(-3.757 0)" fill="#841890"/>
      <g id="Group_1688" data-name="Group 1688">
        <path id="Path_1892" data-name="Path 1892" d="M34.073,35.174l-6.5-2.033a1.911,1.911,0,0,1-1.347-1.832V30.02a.586.586,0,0,0-1.172,0v1.29a3.077,3.077,0,0,0,1.179,2.431,8.806,8.806,0,0,1-12.459,0A3.077,3.077,0,0,0,14.95,31.31V27.98A9.971,9.971,0,0,0,29.9,20.586h.751a2.475,2.475,0,0,0,1.788-.768A2.435,2.435,0,0,0,31.859,16V6.849A6.856,6.856,0,0,0,25.01,0H16.869a3.084,3.084,0,0,0-2.834,1.879h-.923a4.975,4.975,0,0,0-4.97,4.97v7.146a.586.586,0,0,0,1.172,0V6.849a3.8,3.8,0,0,1,3.8-3.8h1.341a.586.586,0,0,0,.567-.439,1.915,1.915,0,0,1,1.849-1.44H25.01a5.683,5.683,0,0,1,5.677,5.677v8.812c-.049,0-.1,0-.147,0h-.52a1.294,1.294,0,0,1-1.293-1.293V11.232a3.1,3.1,0,0,0-3.091-3.091.586.586,0,0,0,0,1.172,1.921,1.921,0,0,1,1.919,1.919v3.131a2.466,2.466,0,0,0,1.253,2.145v1.613a1.294,1.294,0,0,1-1.293,1.293H12.485a1.294,1.294,0,0,1-1.293-1.293V16.508a2.466,2.466,0,0,0,1.252-2.145V11.232a1.921,1.921,0,0,1,1.919-1.919h8.767a.586.586,0,0,0,0-1.172H14.364a3.094,3.094,0,0,0-3.091,3.091v3.131A1.294,1.294,0,0,1,9.98,15.656H9.46A2.521,2.521,0,0,0,6.892,17.99a2.445,2.445,0,0,0,.673,1.828,2.475,2.475,0,0,0,1.788.768H10.1a9.949,9.949,0,0,0,3.068,6.06q.293.276.605.525V31.31a1.911,1.911,0,0,1-1.347,1.832l-6.5,2.033a3.078,3.078,0,0,0-2.169,2.95v1.29a.586.586,0,0,0,1.172,0v-1.29a1.911,1.911,0,0,1,1.347-1.832l3.809-1.19a12.478,12.478,0,0,0,19.829,0l3.81,1.191a1.911,1.911,0,0,1,1.347,1.832v1.29a.586.586,0,1,0,1.172,0v-1.29a3.078,3.078,0,0,0-2.169-2.95ZM29.98,16.827Zm0,1.294V16.828h.56a1.367,1.367,0,0,1,1.4,1.222,1.293,1.293,0,0,1-1.291,1.363H29.612A2.45,2.45,0,0,0,29.98,18.121ZM9.354,19.414a1.293,1.293,0,0,1-1.291-1.363,1.367,1.367,0,0,1,1.4-1.222h.56v1.293a2.45,2.45,0,0,0,.367,1.293H9.354Zm1.933,1.172H28.714a8.724,8.724,0,0,1-.292,1.333H17.5a.586.586,0,0,0,0,1.172h9.437A12.024,12.024,0,0,1,20,25.05a12.024,12.024,0,0,1-6.932-1.959H14.99a.586.586,0,1,0,0-1.172H11.578a8.743,8.743,0,0,1-.292-1.333Zm1.4,3.668A13.318,13.318,0,0,0,20,26.222a13.319,13.319,0,0,0,7.319-1.969,8.782,8.782,0,0,1-14.637,0Zm12.5,13.319A11.187,11.187,0,0,1,20,38.828a11.361,11.361,0,0,1-8.715-4.1l1.391-.435a9.978,9.978,0,0,0,14.649,0l1.391.435a11.422,11.422,0,0,1-3.53,2.845Z" transform="translate(-3.757)" fill="#841890"/>
      </g>
    </g>
  </g>
</svg>
