<svg xmlns="http://www.w3.org/2000/svg" xmlns:xlink="http://www.w3.org/1999/xlink" width="40" height="40" viewBox="0 0 40 40">
  <defs>
    <clipPath id="clip-path">
      <rect id="Rectangle_781" data-name="Rectangle 781" width="40" height="40" fill="#841890"/>
    </clipPath>
  </defs>
  <g id="Mask_Group_51" data-name="Mask Group 51" clip-path="url(#clip-path)">
    <g id="Outline" transform="translate(0 0)">
      <g id="Group_1689" data-name="Group 1689">
        <path id="Path_1893" data-name="Path 1893" d="M8.667,1.333H20.333a3.676,3.676,0,0,1,2.305.815L21.8,3.185a2.307,2.307,0,0,0-1.467-.518H8.667a6.007,6.007,0,0,0-6,6v9.724l3.12-3.12L5.1,14.362a2.533,2.533,0,1,1,4.053-3.04l.061.081A7.846,7.846,0,0,0,10,8a.667.667,0,0,1,.667-.667h9.667A2.336,2.336,0,0,0,22.667,5a2.311,2.311,0,0,0-.229-1.009l1.2-.577A3.635,3.635,0,0,1,24,5a3.673,3.673,0,0,1-2.43,3.452c.074.234,2.413,10.733,2.414,10.737a.668.668,0,0,1-.52.8l-1.4.28,5.552,2.981.352-.66a.666.666,0,0,1,.739-.335,2,2,0,0,1,1.956-1.586H36a.667.667,0,0,1,.434.16l4.667,4a.667.667,0,0,1,.233.506V38.667a.667.667,0,0,1-.667.667h-4c-.425,0-.835-.481-1.147-.73a7.563,7.563,0,0,1-2.851-5.741L30.075,28.71a2.181,2.181,0,0,1-.332-1.242l-2.8-1.558a.667.667,0,0,1-.264-.9l.315-.589-6.324-3.4v6.3a3.337,3.337,0,0,1-3.333,3.333H14v4.171l3,.9a5.115,5.115,0,0,1,3.668,4.929.667.667,0,0,1-.667.667H2a.667.667,0,0,1-.667-.667V29.333H2.667v5.333h10V30a.667.667,0,0,1,.667-.667h4a2,2,0,0,0,2-2V24H16.667V22.667h2.667V20a.667.667,0,0,1,.536-.654l2.666-.533s-2.211-9.894-2.3-10.146H11.308a9.193,9.193,0,0,1-.94,3.42l-.439.878a.667.667,0,0,1-1.129.1l-.708-.945a1.2,1.2,0,1,0-1.92,1.44L7.2,14.933a.667.667,0,0,1-.062.871L2.667,20.276V28H1.333V8.667A7.342,7.342,0,0,1,8.667,1.333ZM31.205,28l2.694,4.31a.667.667,0,0,1,.1.353,6.237,6.237,0,0,0,2.353,4.9L36.9,38H40V25.64L35.753,22H30.667a.667.667,0,1,0,0,1.333H34a.667.667,0,0,1,.471.2l2,2a.667.667,0,0,1,.2.471v3.585l1.164,1.3-.995.888-4.27-4.785A.85.85,0,0,0,31.205,28Zm3.431-2.424-.913-.913h-.7Zm-.358,1.33,1.055,1.182v-.584ZM30.211,26.2a2.228,2.228,0,0,1,.171-.195,2.189,2.189,0,0,1,1.222-.615l-2.779-1.575-.664,1.244ZM13.236,36H2.667v4H19.276a3.786,3.786,0,0,0-2.66-2.986Zm5.431-21.333a2,2,0,1,1-2-2,2,2,0,0,1,2,2Zm-2.667,0A.667.667,0,1,0,16.667,14,.667.667,0,0,0,16,14.667Zm22.236,3.581a5.1,5.1,0,0,0-4.483-.2l.5,1.238A3.884,3.884,0,0,1,38.8,20.4l1.065-.8a5.442,5.442,0,0,0-1.631-1.352Z" transform="translate(-1.333 -1.333)" fill="#841890"/>
      </g>
    </g>
  </g>
</svg>
