<svg xmlns="http://www.w3.org/2000/svg" xmlns:xlink="http://www.w3.org/1999/xlink" width="40" height="40" viewBox="0 0 40 40">
  <defs>
    <clipPath id="clip-path">
      <rect id="Rectangle_781" data-name="Rectangle 781" width="40" height="40" transform="translate(-5 5)" fill="#841890"/>
    </clipPath>
  </defs>
  <g id="Mask_Group_74" data-name="Mask Group 74" transform="translate(5 -5)" clip-path="url(#clip-path)">
    <g id="Group_1692" data-name="Group 1692">
      <path id="covid-doctor-2" d="M35.606,26.924,27.236,23a9.37,9.37,0,0,0,1.791-3.458,3.572,3.572,0,0,0,.332-6.879v-3.3a9.359,9.359,0,0,0-18.717,0v3.3a3.572,3.572,0,0,0,.332,6.879A9.369,9.369,0,0,0,12.764,23L4.394,26.924A7.667,7.667,0,0,0,0,33.839V40H40V33.839a7.667,7.667,0,0,0-4.394-6.914ZM12.985,9.359a7.015,7.015,0,0,1,14.03,0V11.48A8.11,8.11,0,0,1,22.97,8.4l-.85-1.54-1.092,1.4c-.024.031-2.327,2.9-8.043,4.172Zm-2.458,6.7a1.229,1.229,0,0,1,1.228-1.228h1.23a18.929,18.929,0,0,0,8.852-4.076,11.285,11.285,0,0,0,5.177,3.2v.876h1.23a1.228,1.228,0,0,1,0,2.456H27.08l-.166.974a7.015,7.015,0,0,1-13.827,0l-.166-.974H11.755a1.229,1.229,0,0,1-1.228-1.228Zm12.418,9.894L20,30.47l-2.945-4.522a9.345,9.345,0,0,0,5.89,0ZM10.495,37.656a1.563,1.563,0,1,1,1.563-1.562A1.564,1.564,0,0,1,10.495,37.656ZM2.344,33.839a5.314,5.314,0,0,1,3.045-4.792L9.323,27.2v5.167a3.9,3.9,0,0,0-2.407,5.289H2.344Zm11.73,3.818a3.9,3.9,0,0,0-2.407-5.289V26.1l2.061-.967L20,34.764l6.272-9.63,1.9.894v4.714A4.283,4.283,0,0,0,24.89,34.9v2.755Zm13.16,0V34.9a1.935,1.935,0,0,1,1.933-1.933h.365A1.935,1.935,0,0,1,31.464,34.9v2.755Zm10.423,0H33.808V34.9a4.283,4.283,0,0,0-3.287-4.16V27.127l4.09,1.919a5.314,5.314,0,0,1,3.045,4.793Z" transform="translate(-5 5)" fill="#841890"/>
    </g>
  </g>
</svg>
