<svg xmlns="http://www.w3.org/2000/svg" xmlns:xlink="http://www.w3.org/1999/xlink" width="40" height="40" viewBox="0 0 40 40">
  <defs>
    <clipPath id="clip-path">
      <rect id="Rectangle_781" data-name="Rectangle 781" width="40" height="40" transform="translate(45 -1)" fill="#841890"/>
    </clipPath>
  </defs>
  <g id="Mask_Group_71" data-name="Mask Group 71" transform="translate(-45 1)" clip-path="url(#clip-path)">
    <g id="covid-vaccine-2" transform="translate(45 -1)">
      <g id="Group_1691" data-name="Group 1691">
        <path id="Path_1964" data-name="Path 1964" d="M38.243,4.378,31.477.471a3.516,3.516,0,0,0-3.516,6.089l.338.2-1.953,3.383L23.3,8.381a1.172,1.172,0,0,0-1.172,2.03L23.145,11,13.184,28.25a3.52,3.52,0,0,0,1.287,4.8l1.015.586-2.658,4.6a1.172,1.172,0,0,0,2.03,1.172l2.658-4.6,1.015.586a3.52,3.52,0,0,0,4.8-1.287l9.961-17.253,1.015.586a1.172,1.172,0,0,0,1.172-2.03l-3.045-1.758,1.953-3.383.338.2a3.516,3.516,0,0,0,3.516-6.089ZM21.3,32.937a1.173,1.173,0,0,1-1.6.429l-4.06-2.344a1.173,1.173,0,0,1-.429-1.6l.586-1.015,1.015.586a1.172,1.172,0,1,0,1.172-2.03l-1.015-.586,1.172-2.03,2.368,1.367a1.172,1.172,0,0,0,1.172-2.03l-2.368-1.367,1.172-2.03L26.576,23.8Zm6.445-11.164-6.089-3.516,1.172-2.03L25.2,17.6a1.172,1.172,0,0,0,1.172-2.03L24,14.2l1.172-2.03,6.089,3.516Zm2.658-9.291-2.03-1.172L30.33,7.928,32.359,9.1ZM37.5,8.008a1.173,1.173,0,0,1-1.6.429L29.133,4.531A1.172,1.172,0,0,1,30.305,2.5l6.766,3.906a1.173,1.173,0,0,1,.429,1.6Z" fill="#841890"/>
        <path id="Path_1965" data-name="Path 1965" d="M15.014,16.671a1.172,1.172,0,1,0,1.657-1.657l-.9-.9a7.384,7.384,0,0,0,1.32-3.179h1.265a1.172,1.172,0,0,0,0-2.344H17.095a7.383,7.383,0,0,0-1.32-3.179l.9-.9A1.172,1.172,0,0,0,15.014,2.86l-.9.9a7.384,7.384,0,0,0-3.179-1.32V1.172a1.172,1.172,0,1,0-2.344,0V2.437a7.384,7.384,0,0,0-3.179,1.32l-.9-.9A1.172,1.172,0,1,0,2.86,4.518l.9.9a7.385,7.385,0,0,0-1.32,3.179H1.172a1.172,1.172,0,0,0,0,2.344H2.437a7.383,7.383,0,0,0,1.32,3.179l-.9.9a1.172,1.172,0,0,0,1.657,1.657l.9-.9a7.385,7.385,0,0,0,3.179,1.32v1.265a1.172,1.172,0,0,0,2.344,0V17.095a7.383,7.383,0,0,0,3.179-1.32ZM9.766,14.844a5.078,5.078,0,1,1,5.078-5.078,5.084,5.084,0,0,1-5.078,5.078Z" fill="#841890"/>
      </g>
      <circle id="Ellipse_242" data-name="Ellipse 242" cx="1.172" cy="1.172" r="1.172" transform="translate(9.766 10.547)" fill="#841890"/>
      <circle id="Ellipse_243" data-name="Ellipse 243" cx="1.172" cy="1.172" r="1.172" transform="translate(7.422 6.641)" fill="#841890"/>
    </g>
  </g>
</svg>
