<svg xmlns="http://www.w3.org/2000/svg" xmlns:xlink="http://www.w3.org/1999/xlink" width="40" height="40" viewBox="0 0 40 40">
  <defs>
    <clipPath id="clip-path">
      <rect id="Rectangle_781" data-name="Rectangle 781" width="40" height="40" transform="translate(183 190)" fill="#841890"/>
    </clipPath>
  </defs>
  <g id="Mask_Group_54" data-name="Mask Group 54" transform="translate(-183 -190)" clip-path="url(#clip-path)">
    <g id="covid-ambulance" transform="translate(183 192.506)">
      <g id="Group_1690" data-name="Group 1690">
        <path id="Path_1904" data-name="Path 1904" d="M24.648,5.447a.586.586,0,0,0,.586-.586V3.092a.586.586,0,0,0-1.172,0V4.861A.586.586,0,0,0,24.648,5.447Zm-2.883.109a.586.586,0,0,0,1.021-.576l-.743-1.317a.586.586,0,0,0-1.021.576Zm4.968.222a.587.587,0,0,0,.8-.222l.743-1.317a.586.586,0,0,0-1.021-.576L26.511,4.98A.586.586,0,0,0,26.733,5.778ZM38,21.873l-4.75-1.583a.976.976,0,0,1-.594-.556l-2.647-6.44a2.919,2.919,0,0,0-2.71-1.816h-.03V10.424a2.617,2.617,0,0,0-5.234,0v1.055H2.93A2.933,2.933,0,0,0,0,14.409v3.867a.586.586,0,0,0,1.172,0V14.409A1.76,1.76,0,0,1,2.93,12.651H17.461V25.307H1.172v-4.3A.586.586,0,0,0,0,21.01v9.219a2.933,2.933,0,0,0,2.93,2.93h1.5a4.921,4.921,0,0,0,9.772,0H24.88a4.921,4.921,0,0,0,9.772,0H37.07A2.933,2.933,0,0,0,40,30.229V24.652a2.925,2.925,0,0,0-2-2.779ZM9.316,36.323a3.75,3.75,0,1,1,3.75-3.75A3.754,3.754,0,0,1,9.316,36.323Zm8.145-4.336H14.2a4.921,4.921,0,0,0-9.772,0H2.93a1.76,1.76,0,0,1-1.758-1.758v-3.75H17.461ZM23.2,10.424a1.445,1.445,0,1,1,2.891,0v1.055H23.2Zm6.563,25.9a3.75,3.75,0,1,1,3.75-3.75A3.754,3.754,0,0,1,29.766,36.323Zm9.063-11.016H29.891a.586.586,0,0,0,0,1.172h8.937v3.75a1.76,1.76,0,0,1-1.758,1.758H34.651a4.921,4.921,0,0,0-9.772,0H18.633V26.479h8.524a.586.586,0,0,0,0-1.172H18.633V12.651H27.3a1.751,1.751,0,0,1,1.626,1.089l2.647,6.44A2.147,2.147,0,0,0,32.876,21.4l4.75,1.583a1.755,1.755,0,0,1,1.2,1.667Zm-11-10.872a.972.972,0,0,0-.906-.612H20.781a.978.978,0,0,0-.977.977v5.43a.978.978,0,0,0,.977.977h8.328a.987.987,0,0,0,.906-1.341Zm-6.853,5.6V14.994h5.815l2.028,5.039Zm8.789,10.781a1.758,1.758,0,1,0,1.758,1.758A1.76,1.76,0,0,0,29.766,30.815Zm0,2.344a.586.586,0,0,1,0-1.172c.323,0,.586.586.586.586S30.089,33.158,29.766,33.158ZM10.02,13.823H8.613a1.056,1.056,0,0,0-1.055,1.055v2.344H5.215A1.056,1.056,0,0,0,4.16,18.276v1.406a1.056,1.056,0,0,0,1.055,1.055H7.559V23.08a1.056,1.056,0,0,0,1.055,1.055H10.02a1.056,1.056,0,0,0,1.055-1.055V20.737h2.344a1.056,1.056,0,0,0,1.055-1.055V18.276a1.056,1.056,0,0,0-1.055-1.055H11.074V14.877A1.056,1.056,0,0,0,10.02,13.823Zm3.281,4.57v1.172H10.723a.821.821,0,0,0-.82.82v2.578H8.73V20.385a.821.821,0,0,0-.82-.82H5.332V18.393H7.91a.821.821,0,0,0,.82-.82V14.994H9.9v2.578a.821.821,0,0,0,.82.82ZM9.316,30.815a1.758,1.758,0,1,0,1.758,1.758A1.76,1.76,0,0,0,9.316,30.815Zm0,2.344a.586.586,0,1,1,.586-.586A.587.587,0,0,1,9.316,33.158Z" transform="translate(0 -2.506)" fill="#841890"/>
      </g>
    </g>
  </g>
</svg>
