<svg xmlns="http://www.w3.org/2000/svg" xmlns:xlink="http://www.w3.org/1999/xlink" width="30" height="30" viewBox="0 0 30 30">
  <defs>
    <clipPath id="clip-path">
      <rect id="Rectangle_773" data-name="Rectangle 773" width="16" height="16" rx="8" transform="translate(469 43)" fill="#841890"/>
    </clipPath>
  </defs>
  <g id="Group_1687" data-name="Group 1687" transform="translate(-464 -38)">
    <rect id="Rectangle_772" data-name="Rectangle 772" width="30" height="30" rx="15" transform="translate(464 38)" fill="#fbdbff"/>
    <g id="Mask_Group_49" data-name="Mask Group 49" transform="translate(2 2)" clip-path="url(#clip-path)">
      <g id="call-center" transform="translate(469 43)">
        <g id="Group_1526" data-name="Group 1526" transform="translate(0 0)">
          <path id="Path_1887" data-name="Path 1887" d="M14.594,6.625h-.5V6.156a6.148,6.148,0,0,0-1.782-4.338,6.02,6.02,0,0,0-8.623,0A6.148,6.148,0,0,0,1.906,6.156v.469h-.5A1.408,1.408,0,0,0,0,8.031v2.813A1.408,1.408,0,0,0,1.406,12.25h.581a1.406,1.406,0,0,0,2.732-.469V7.094a1.405,1.405,0,0,0-1.86-1.331,5.152,5.152,0,0,1,10.283,0,1.405,1.405,0,0,0-1.86,1.331v4.688a1.408,1.408,0,0,0,.938,1.326v.549a.469.469,0,0,1-.469.469H9.326a1.406,1.406,0,1,0,0,.938H11.75a1.408,1.408,0,0,0,1.406-1.406v-.549a1.413,1.413,0,0,0,.857-.857h.581A1.408,1.408,0,0,0,16,10.844V8.031A1.408,1.408,0,0,0,14.594,6.625ZM1.906,11.313h-.5a.469.469,0,0,1-.469-.469V8.031a.469.469,0,0,1,.469-.469h.5ZM3.313,6.625a.469.469,0,0,1,.469.469v4.688a.469.469,0,0,1-.937,0V7.094A.469.469,0,0,1,3.313,6.625ZM8,15.063a.469.469,0,1,1,.469-.469A.469.469,0,0,1,8,15.063Zm5.156-3.281a.469.469,0,0,1-.937,0V7.094a.469.469,0,0,1,.938,0Zm1.906-.937a.469.469,0,0,1-.469.469h-.5V7.563h.5a.469.469,0,0,1,.469.469Z" transform="translate(0 0)" fill="#841890"/>
        </g>
      </g>
    </g>
  </g>
</svg>
