<svg xmlns="http://www.w3.org/2000/svg" width="40" height="40" viewBox="0 0 40 40">
  <g id="Group_1701" data-name="Group 1701" transform="translate(0 0)">
    <g id="XMLID_1687_">
      <path id="XMLID_898_" d="M21.758,40H18.242a2.344,2.344,0,0,1-.586-4.613v-.972a.471.471,0,0,0-.384-.458A14.078,14.078,0,0,1,12.064,31.8a.473.473,0,0,0-.6.051l-.694.694A2.34,2.34,0,0,1,7.1,35.385L4.615,32.9a2.345,2.345,0,0,1,2.848-3.677l.687-.687a.473.473,0,0,0,.051-.6,14.079,14.079,0,0,1-2.157-5.208.471.471,0,0,0-.458-.384H4.614A2.347,2.347,0,0,1,2.259,24.1,2.354,2.354,0,0,1,0,21.72V18.242A2.344,2.344,0,0,1,2.423,15.9,2.373,2.373,0,0,1,4.6,17.656h.982a.471.471,0,0,0,.458-.384A14.078,14.078,0,0,1,8.2,12.064a.473.473,0,0,0-.051-.6l-.687-.687A2.344,2.344,0,0,1,4.615,7.1L7.1,4.615a2.345,2.345,0,0,1,3.677,2.848l.687.687a.473.473,0,0,0,.6.051,14.079,14.079,0,0,1,5.208-2.157.471.471,0,0,0,.384-.458V4.613A2.344,2.344,0,0,1,18.242,0h3.516a2.344,2.344,0,0,1,.586,4.613v.972a.471.471,0,0,0,.384.458A14.078,14.078,0,0,1,27.936,8.2a.473.473,0,0,0,.6-.051l.688-.688A2.344,2.344,0,0,1,32.9,4.615L35.385,7.1a2.345,2.345,0,0,1-2.848,3.677l-.687.687a.473.473,0,0,0-.051.6,14.079,14.079,0,0,1,2.157,5.208.471.471,0,0,0,.458.384h.981a2.366,2.366,0,0,1,2.051-1.749h0A2.344,2.344,0,0,1,40,18.242v3.516a2.339,2.339,0,0,1-4.605.586h-.981a.471.471,0,0,0-.458.384A14.078,14.078,0,0,1,31.8,27.936a.473.473,0,0,0,.051.6l.687.687A2.344,2.344,0,0,1,35.385,32.9L32.9,35.385a2.339,2.339,0,0,1-3.671-2.842l-.694-.694a.473.473,0,0,0-.6-.051,14.079,14.079,0,0,1-5.208,2.157.471.471,0,0,0-.384.458v.972A2.344,2.344,0,0,1,21.758,40Zm-9.964-9.846a2.043,2.043,0,0,1,1.143.349,12.524,12.524,0,0,0,4.633,1.919,2.036,2.036,0,0,1,1.648,1.992V35.9a.978.978,0,0,1-.977.977.781.781,0,0,0,0,1.563h3.516a.781.781,0,0,0,0-1.562.978.978,0,0,1-.977-.977V34.414a2.036,2.036,0,0,1,1.649-1.992A12.526,12.526,0,0,0,27.063,30.5a2.039,2.039,0,0,1,2.577.242l1.075,1.075a.942.942,0,0,1,0,1.331.8.8,0,0,0-.075,1.076.782.782,0,0,0,1.155.054l2.486-2.486a.781.781,0,1,0-1.1-1.1l-.025.025a.942.942,0,0,1-1.331,0L30.745,29.64a2.039,2.039,0,0,1-.242-2.577,12.524,12.524,0,0,0,1.919-4.633,2.036,2.036,0,0,1,1.992-1.649h1.519a.942.942,0,0,1,.941.941.8.8,0,0,0,.708.813.782.782,0,0,0,.854-.778V18.242a.782.782,0,0,0-.854-.778.8.8,0,0,0-.708.813.942.942,0,0,1-.941.941H34.414a2.036,2.036,0,0,1-1.992-1.649A12.526,12.526,0,0,0,30.5,12.937a2.039,2.039,0,0,1,.242-2.577l1.05-1.05a.978.978,0,0,1,1.381,0,.781.781,0,1,0,1.1-1.1L31.794,5.72a.781.781,0,0,0-1.1,1.1.978.978,0,0,1,0,1.381l-1.05,1.05a2.039,2.039,0,0,1-2.577.242A12.524,12.524,0,0,0,22.43,7.578a2.036,2.036,0,0,1-1.649-1.992V4.1a.978.978,0,0,1,.977-.977.781.781,0,0,0,0-1.563H18.242a.781.781,0,0,0,0,1.563.978.978,0,0,1,.977.977V5.586A2.036,2.036,0,0,1,17.57,7.578,12.526,12.526,0,0,0,12.937,9.5a2.039,2.039,0,0,1-2.577-.242L9.31,8.206a.977.977,0,0,1,0-1.381.781.781,0,0,0-1.105-1.1L5.72,8.205a.781.781,0,0,0,1.1,1.1.978.978,0,0,1,1.381,0l1.05,1.05A2.039,2.039,0,0,1,9.5,12.937,12.524,12.524,0,0,0,7.578,17.57a2.036,2.036,0,0,1-1.992,1.649H4.061a.937.937,0,0,1-.936-.936.809.809,0,0,0-.754-.822.781.781,0,0,0-.809.781V21.72a.808.808,0,0,0,.752.818.781.781,0,0,0,.81-.781.978.978,0,0,1,.977-.977H5.586A2.036,2.036,0,0,1,7.578,22.43,12.526,12.526,0,0,0,9.5,27.063a2.039,2.039,0,0,1-.242,2.577L8.181,30.715a.942.942,0,0,1-1.331,0l-.025-.025a.781.781,0,0,0-1.1,1.1L8.206,34.28a.782.782,0,0,0,1.154-.054.8.8,0,0,0-.075-1.076.942.942,0,0,1,0-1.331l1.075-1.075a2.024,2.024,0,0,1,1.434-.591Z" fill="#841890"/>
    </g>
  </g>
</svg>
