<svg xmlns="http://www.w3.org/2000/svg" xmlns:xlink="http://www.w3.org/1999/xlink" width="90" height="45" viewBox="0 0 90 45">
  <defs>
    <clipPath id="clip-path">
      <rect id="Rectangle_739" data-name="Rectangle 739" width="90" height="45" transform="translate(217 7107)" fill="#841890"/>
    </clipPath>
  </defs>
  <g id="Mask_Group_37" data-name="Mask Group 37" transform="translate(-217 -7107)" clip-path="url(#clip-path)">
    <g id="Group_1709" data-name="Group 1709">
      <g id="স্বাস্থ্য_ও_পরিবার_কল্যাণ_মন্ত্রণালয়" data-name="স্বাস্থ্য ও পরিবার কল্যাণ মন্ত্রণালয়" transform="translate(217 7108.483)">
        <g id="Group_1314" data-name="Group 1314" transform="translate(29.308)">
          <path id="Path_1583" data-name="Path 1583" d="M53.6,32.394A10.5,10.5,0,1,1,43.083,21.905,10.506,10.506,0,0,1,53.6,32.394Zm-9.868,5.1a.235.235,0,0,1-.108.243.1.1,0,0,0-.027.081c0,.027,0,.081.054.081s.108.027.162-.027a.206.206,0,0,0-.081-.377c-.027-.162-.027-.162-.162-.108-.054.027-.135.108-.189,0-.027-.027-.054,0-.081,0-.054,0-.081.054-.135,0,.027-.054.108-.081.162-.135.027-.027.054-.027.054,0,.027.081.108.054.162.027a.946.946,0,0,0,.512-.458,2.651,2.651,0,0,0,.135-.431c0-.027,0-.108.081-.081.081,0,.081.054.081.135a1.026,1.026,0,0,1-.135.4.205.205,0,0,0-.027.243c.054.081.135-.027.189-.027a.181.181,0,0,0,.081.216c.081.027.108-.054.135-.108,0-.027.027-.027.054-.027a.821.821,0,0,0,.216-.216c.135-.216.216-.485.027-.674-.027-.027-.027-.054-.054-.054,0-.027-.054-.054,0-.081.027-.027.054.027.054.054s.027.027.027.054c.027.054.081.054.135.027s.027-.054.027-.108c-.054-.189-.162-.243-.351-.27-.135,0-.162.027-.135.162v.027a4.931,4.931,0,0,1-.054.89.178.178,0,0,1-.189.162c.027-.135.135-.243.135-.377.027-.27,0-.539,0-.809,0-.081.027-.108.108-.108h.431c.135,0,.3-.027.351-.135a.464.464,0,0,1,.3-.3.026.026,0,0,0,.027-.027c.054-.054.081-.027.108,0a7.416,7.416,0,0,1,.512.755c.108.216.108.458.216.674a1.182,1.182,0,0,1,.162.62c0,.108.027.189-.081.243a.094.094,0,0,0-.027.054.976.976,0,0,0,.081.62.324.324,0,0,1,0,.4.1.1,0,0,0,.054.135c.135.027.216.054.216.216a.026.026,0,0,0,.027.027.706.706,0,0,1,.135.458.4.4,0,0,0,.054.243,3.772,3.772,0,0,1,.431.7c.054.135.162.243.216.377a.362.362,0,0,0,.162.189c.054.027.108,0,.108-.054a.956.956,0,0,0-.081-.3,1.882,1.882,0,0,1-.216-.539.306.306,0,0,0-.081-.216.522.522,0,0,1,.027-.755c.027-.027.027-.054.054-.081A.37.37,0,0,1,47.99,39c.054-.027.081.081.108.108.081.162.081.162.243.108.081-.027.135-.027.162.081,0,.027.027.054.054.108.081.162.135.189.27.054a.12.12,0,0,0,.054-.162,2.969,2.969,0,0,1-.135-1.375,1.159,1.159,0,0,0-.054-.674A.2.2,0,0,1,48.718,37a.2.2,0,0,0,.054-.162,1.986,1.986,0,0,0-.108-.377,3.03,3.03,0,0,0-.108-.863v-.054c0-.108.027-.243-.108-.3-.027,0-.027-.054-.027-.081,0-.3-.27-.512-.216-.836,0-.027-.027-.054-.027-.081a.748.748,0,0,1,0-.485.46.46,0,0,0,0-.27c-.054-.324-.27-.62-.216-1,0-.054-.027-.054-.054-.081s-.054,0-.081.027c-.054.081-.108.054-.162,0-.054-.081-.081-.054-.162-.027-.027.027-.054.081-.081.108q-.121.2-.243,0c-.027-.054-.081-.054-.135-.054-.081,0-.081.054-.108.108a.99.99,0,0,0,.027.485c0,.054,0,.108-.054.108-.162.054-.216.243-.351.3l-.081.081a.43.43,0,0,0,0,.4.412.412,0,0,1-.108.485c-.216.189-.351.243-.485-.081a.243.243,0,0,1-.027-.135,1.327,1.327,0,0,0-.162-.458c-.027-.054-.054-.081-.135-.054-.054.027-.108.027-.108.108,0,.108-.027.216.027.3a.1.1,0,0,1-.027.081c-.027.027-.054-.027-.054-.054a1.422,1.422,0,0,1-.081-.324A2,2,0,0,0,45,32.8c-.027-.054-.054-.135,0-.162.054-.081.027-.135-.027-.216.108,0,.135-.081.162-.162a1.146,1.146,0,0,0,.054-.3c0-.162.081-.243.216-.243.054,0,.081-.027.081-.054.027-.081.081-.135.081-.216.027-.108.054-.108.135-.054a1.578,1.578,0,0,0,.351.054c.054,0,.081-.027.108-.081l.081-.243a.676.676,0,0,0,.189.108c.027,0,.081.054.108.027s-.027-.054-.027-.108-.081-.135.027-.135c.081,0,.162,0,.189.108v.054a.086.086,0,0,0,.081.081c.054.027.081-.027.108-.054a.966.966,0,0,0,.108-.3c0-.054,0-.108.108-.108.054,0,.108-.054.054-.135s-.027-.108.054-.108h.108a.188.188,0,0,0,.216-.162c0-.027.027-.081.027-.108,0-.081.027-.108.108-.108.108.027.162-.027.162-.135a.822.822,0,0,1,.081-.431.245.245,0,0,0-.027-.3.127.127,0,0,1-.027-.162c.054-.054.108,0,.135.027a.367.367,0,0,0,.4,0c.081-.027.081-.081.054-.135a1.429,1.429,0,0,1-.162-.27.365.365,0,0,0-.27-.189,1.127,1.127,0,0,1-.27-.108,1.367,1.367,0,0,0-.809-.243,3.235,3.235,0,0,0-.539.081c-.081.027-.162.054-.216-.054-.027-.081-.135-.081-.216,0-.054.054-.081.081-.135.054-.27-.081-.539-.27-.836-.162a.162.162,0,0,1-.108-.027.551.551,0,0,0-.458.081.456.456,0,0,1-.377.027,1.292,1.292,0,0,0-.782.027.228.228,0,0,1-.189,0c-.324-.054-.62-.216-.971-.243A.094.094,0,0,1,42.085,28a.5.5,0,0,0-.431-.135c-.135,0-.162-.054-.162-.162a3.217,3.217,0,0,1,.135-.7.16.16,0,0,0-.027-.189.211.211,0,0,1,0-.3c.081-.054.108-.162.162-.243a.146.146,0,0,0-.054-.216c-.108-.081-.162-.216-.27-.3a.206.206,0,0,1-.054-.135.256.256,0,0,0-.162-.27.058.058,0,0,1-.054-.054c-.027-.108-.081-.108-.162-.081s-.216.243-.162.324c.081.108-.027.189-.027.3a.026.026,0,0,1-.027.027c-.081-.054-.162,0-.243-.027a1.238,1.238,0,0,1-.593-.3l-.027-.027c-.108-.027-.135-.108-.162-.216s-.027-.243-.054-.351a.549.549,0,0,0-.377-.351c-.162-.054-.216,0-.189.189,0,.054.027.081.081.108.054.054.108.081.162.135.027.027.054.027.027.081a.051.051,0,0,1-.081,0c-.027-.027-.081-.054-.108-.081-.108-.054-.189-.081-.27.081-.027-.243-.216-.3-.351-.4a2.111,2.111,0,0,0-.539-.431c-.108-.054-.162-.108-.162-.216a.086.086,0,0,0-.081-.081.108.108,0,0,0-.108.054c-.027.108-.108.162-.135.243s-.054.162,0,.216c.027.054.108,0,.189,0a.136.136,0,0,1,.189.108c.027.081.027.162-.081.189a.429.429,0,0,0-.243.243.285.285,0,0,1-.189.162.406.406,0,0,0-.324.4.257.257,0,0,1-.054.189.471.471,0,0,0-.108.324c-.027.27.081.351.324.27.054-.027.081,0,.108.054a.476.476,0,0,0,.243.216c.135.027.189.135.243.243a.571.571,0,0,0,.728.351c.162-.027.189,0,.189.135a.291.291,0,0,0,.162.3c.135.081.108.216.108.351-.027.108-.108,0-.162.054h-.027a.309.309,0,0,1-.27-.027.245.245,0,0,0-.27,0,.1.1,0,0,1-.162,0,.443.443,0,0,0-.27-.054c-.054,0-.108,0-.081.081a2.041,2.041,0,0,1-.027.4.229.229,0,0,1-.189.216.071.071,0,0,0-.081.081c-.027.135-.027.135-.162.081l-.081-.081a.211.211,0,0,0-.216-.027c-.054,0-.027.081-.027.135.027.081-.027.135-.054.216-.081.135-.162.27-.243.377a.166.166,0,0,0-.027.189,4.362,4.362,0,0,0,.485.512c.243.162.485.3.728.431a.718.718,0,0,0,.324.081c.108,0,.216,0,.243.108a.259.259,0,0,1-.054.351.162.162,0,0,0-.027.108c.027.054.027.135.054.189a.25.25,0,0,1-.108.324.56.56,0,0,0-.3.27.932.932,0,0,0-.054.539c0,.081.108.081.135.135a.7.7,0,0,0,.377.3c.027,0,.054.027.027.081-.081.081-.081.189-.135.3a.216.216,0,0,0,.135.351,2.041,2.041,0,0,0,.4.027c.027,0,.108-.027.108.054,0,.054-.054.054-.081.081a.517.517,0,0,0-.243.485,1.859,1.859,0,0,0,.189.4.2.2,0,0,1,0,.27c-.054.081-.054.135.027.162.054.027.081.081.027.135a.14.14,0,0,0-.027.216.635.635,0,0,1,.081.539.527.527,0,0,0,.162.512c.054.054.135.162.027.243-.027.027-.027.054-.027.108a.787.787,0,0,1,.054.243c.027.081.081.189-.081.216-.027,0-.027.054-.027.081v.189c-.027.189.108.27.189.4a.1.1,0,0,0,.081.027c.054-.027.135-.027.135-.081s0-.135-.054-.162c-.162-.108-.108-.243-.081-.377v.189c.027.081.027.189.135.135.108-.027.108.027.108.081v.27c0,.054,0,.135.081.162.081,0,.189-.108.162-.162a.575.575,0,0,1,0-.216.678.678,0,0,0-.054-.4.6.6,0,0,1-.081-.431A.148.148,0,0,1,39.847,37a.057.057,0,1,1,.081.081c-.081.081-.027.162.027.216.027.054.081.081.135.135a.29.29,0,0,1,.054.216c-.027.081-.081.054-.108.054s-.081,0-.081.054-.027.108.054.135a.148.148,0,0,1,.081.135c.027.135.135.162.243.054.081-.081.135-.135.054-.27-.081-.108-.054-.162.081-.216.027-.027.054-.054.054-.081a.248.248,0,0,0-.054-.27c-.027-.027-.054-.081-.027-.108a.094.094,0,0,1,.054-.027c.054,0,.027.054.027.108s.027.108.081.108.027-.054.054-.108c0-.027.027-.081.027-.108s.027-.054.081-.054c.135,0,.243.081.377.081a.058.058,0,0,1,.054.054c.027.054.081.054.135.054a.4.4,0,0,0-.108.324c0,.081.054.108.108.135s.108.027.135-.027a.127.127,0,0,0,.027-.162.172.172,0,0,1,0-.162c.027.054.027.108.054.162.054-.027.054-.054.054-.081,0-.054.027-.054.054-.054a.2.2,0,0,1,.189.189c0,.135,0,.243.162.27l.027.027c.189.135.3.108.458-.054.027-.027.081-.108.135-.027.027.027.108.027.108-.027,0-.135.081-.108.189-.108a.179.179,0,0,0,.135-.108c.027-.027.027-.081.081-.081.027.027,0,.054-.027.108s-.027.081.027.135.081.027.135,0a.211.211,0,0,0,.108-.108c.027.081.081.135.162.081A1.075,1.075,0,0,0,43.73,37.49Zm-2.723.27a.162.162,0,0,1,.108.027c.054,0,.108.027.135-.027s0-.081-.027-.135a.242.242,0,0,1-.027-.3c.054-.081.027-.135-.054-.189a.113.113,0,0,0-.162.081.831.831,0,0,0,0,.512c-.027,0-.054,0-.054-.027-.027-.054-.027-.108-.054-.162-.027-.108-.108-.108-.189-.108s-.027.081-.054.135c-.027.135-.108.27,0,.431v.054c-.027.081.054.081.108.108.081,0,.054-.054.081-.108s-.027-.108,0-.162c.054,0,.054.054.081.081a.1.1,0,0,0,.162,0C41.141,37.867,41.061,37.813,41.007,37.759Zm4.988-1.618c.027-.135-.108-.243-.108-.377,0-.108-.081-.162-.135-.243-.081-.054-.108-.054-.135.054a.722.722,0,0,0,.108.7c.081.108.108.108.243.027C45.995,36.276,45.995,36.222,45.995,36.141Zm-2.777,1.591a.026.026,0,0,0-.027-.027.635.635,0,0,1-.216-.054c-.027-.027-.054,0-.081.027,0,.027-.027.081.027.108a.383.383,0,0,0,.162.054C43.137,37.867,43.217,37.813,43.217,37.732Zm-3.128.458a.058.058,0,0,0,.054-.054.086.086,0,0,0-.081-.081c-.027,0-.081.027-.054.054C40.009,38.137,40.063,38.164,40.09,38.191Z" transform="translate(-27.418 -16.702)" fill="#ea272a"/>
          <path id="Path_1584" data-name="Path 1584" d="M52.807,39.11c-.351-.162-.647-.324-.971-.458-.243-.108-.243-.108-.431.081-.216.243-.431.485-.7.755a5.215,5.215,0,0,1,.108-.728c.027-.162.027-.3.054-.458a.113.113,0,0,0-.081-.162l-.971-.4c-.027-.027-.081-.027-.108-.054.4-.081.782-.135,1.186-.216.108-.027.135-.054.135-.162.027-.377.054-.755.108-1.186.189.351.351.674.512,1,.054.108.108.162.243.108.351-.081.674-.135,1.025-.216h.108c0,.027.027.027.027.054-.3.27-.566.539-.863.809a.127.127,0,0,0-.027.162l.566.89C52.753,39,52.78,39.029,52.807,39.11Z" transform="translate(-25.279 -14.925)" fill="#ea2a2c"/>
          <path id="Path_1585" data-name="Path 1585" d="M52.942,35.908c-.054-.431-.108-.809-.162-1.186a.127.127,0,0,0-.135-.135c-.4-.054-.782-.081-1.213-.135.216-.108.4-.189.566-.27a5.026,5.026,0,0,0,.539-.27c.054-.027.081-.054.054-.108-.081-.4-.162-.782-.216-1.186.054.081.135.135.189.216.189.216.4.4.593.62.081.081.135.108.243.027.324-.189.674-.377,1.025-.566a1.315,1.315,0,0,1-.081.189c-.162.3-.3.593-.458.89-.027.081-.027.108.027.162.27.243.566.512.863.809-.3-.054-.539-.081-.782-.108-.135-.027-.243-.027-.377-.054a.113.113,0,0,0-.162.081c-.135.324-.3.62-.458.944C53,35.8,52.969,35.827,52.942,35.908Z" transform="translate(-25.063 -15.362)" fill="#ea2a2c"/>
          <path id="Path_1586" data-name="Path 1586" d="M29.952,32.837c.351.216.674.4,1.025.62a.143.143,0,0,0,.216-.027c.243-.243.512-.485.755-.728l.108-.108c-.081.377-.162.755-.27,1.105-.027.135,0,.189.108.243l.89.485c.027.027.081.027.108.081-.377.027-.755.081-1.132.108-.108,0-.162.027-.189.162-.054.377-.135.728-.216,1.132-.135-.324-.27-.647-.4-.944-.108-.243-.108-.243-.351-.189-.324.054-.674.081-1.025.135,0-.054.054-.054.081-.081.27-.243.539-.485.809-.7.081-.054.081-.108.027-.189-.162-.324-.324-.62-.458-.944C29.979,32.945,29.979,32.891,29.952,32.837Z" transform="translate(-27.795 -15.365)" fill="#ea2a2c"/>
          <path id="Path_1587" data-name="Path 1587" d="M34.521,37.732c-.4.162-.755.3-1.105.431-.081.027-.108.054-.108.162.054.377.081.755.135,1.159a.211.211,0,0,1-.108-.108l-.647-.809c-.054-.054-.081-.081-.162-.054-.324.135-.647.3-.971.431-.027.027-.081.027-.135.054.216-.324.431-.647.62-.971.054-.081.081-.162-.027-.243-.243-.243-.485-.512-.7-.755l-.108-.108c.4.108.782.216,1.159.324a.17.17,0,0,0,.216-.081c.189-.324.377-.674.593-1.025.027.243.027.485.054.7,0,.162.027.324.027.485,0,.081.027.108.108.108C33.685,37.543,34.089,37.624,34.521,37.732Z" transform="translate(-27.591 -14.922)" fill="#ea2a2c"/>
          <path id="Path_1588" data-name="Path 1588" d="M39.411,21.228a1.915,1.915,0,0,1-1.537-.809c-.027-.027-.081-.081-.054-.108a.122.122,0,0,1,.162,0,1.889,1.889,0,0,0,.27.216,1.731,1.731,0,0,0,.863.351A1.126,1.126,0,0,0,40.22,20.2a.312.312,0,0,0-.351-.4.792.792,0,0,0-.485.351c-.135.162-.135.162-.3.027-.216-.162-.216-.162.027-.324a2.021,2.021,0,0,1,.539-.27.631.631,0,0,1,.809.809,1.1,1.1,0,0,1-.917.782C39.545,21.228,39.465,21.228,39.411,21.228Z" transform="translate(-26.765 -16.995)" fill="#169a4d"/>
          <g id="Group_1311" data-name="Group 1311" transform="translate(1.949 0.986)">
            <path id="Path_1589" data-name="Path 1589" d="M44.773,19.112a.236.236,0,0,1-.243-.162,1.125,1.125,0,0,0-.863-.755,2.005,2.005,0,0,0-1.052.081c-.27.054-.243.081-.189.324.027.108.054.135.162.081a2.639,2.639,0,0,1,1.132-.189.612.612,0,0,1,.593.485c.027.081,0,.108-.108.108a13.633,13.633,0,0,0-3.775.243,13.892,13.892,0,0,0-5.365,2.346,14.854,14.854,0,0,0-1.833,1.618c-.054.054-.054.081,0,.135a3.075,3.075,0,0,1,.3.3h-.351a1.148,1.148,0,0,0-1.025.7,2.126,2.126,0,0,0-.135.809c0,.054-.027.162.081.189a.17.17,0,0,0,.216-.108.383.383,0,0,0,.054-.162.211.211,0,0,1,.108-.108c.189-.081.3.027.3.216,0,.108.027.135.135.135h.081c.081,0,.135-.027.135-.108a3.84,3.84,0,0,1,.135-.431c.108-.324.216-.647.3-.917l.647.566a.868.868,0,0,0-.836.89.886.886,0,0,1-.189.431.312.312,0,0,1-.431.108.727.727,0,0,1-.216-.189.206.206,0,0,0,.108.3,1.259,1.259,0,0,0,.27.135.512.512,0,0,0,.593-.189,1.093,1.093,0,0,0,.135-.243,5.855,5.855,0,0,0,.189-.647.533.533,0,0,1,.647-.431c.108.027.162-.081.189-.135.054-.054-.027-.081-.054-.108-.324-.351-.674-.674-1-1.025-.027-.027-.108-.054-.027-.135.377-.351.755-.674,1.159-1.052v.216a.424.424,0,0,0,.485.431.731.731,0,0,0,.7-.458c.027-.054.027-.135.108-.108s.081.108.081.162a.741.741,0,0,1-.27.512,1.248,1.248,0,0,1-1.025.216,1.76,1.76,0,0,1-.539-.135c-.108-.054-.108.054-.135.108s0,.054.054.054a2.788,2.788,0,0,0,1.483.162.862.862,0,0,0,.782-.755.554.554,0,0,0-.593-.674c-.081,0-.135.027-.135.108a.594.594,0,0,1-.243.431.337.337,0,0,1-.377.054.346.346,0,0,1-.054-.377c0-.027.027-.054.027-.081a1.551,1.551,0,0,1,.512-.512.1.1,0,0,1,.081-.027,3.278,3.278,0,0,0,.89,0c.081,0,.108,0,.081.108a1.3,1.3,0,0,0,.243,1c.054.108.135,0,.216,0,.081-.027.027-.081,0-.108a.987.987,0,0,1-.108-.62,1.531,1.531,0,0,1,.189-.593c.054-.108-.054-.108-.108-.189-.027-.054-.054-.054-.108,0a1.011,1.011,0,0,1-.944.243c-.054,0-.108,0-.108-.054-.027-.054.054-.081.081-.108l1.294-.728c.081-.054.081-.027.108.054.162.4.351.836.512,1.24.108.243.108.243.324.135.081-.054.108-.081.054-.162-.189-.431-.351-.89-.539-1.321-.027-.081-.027-.108.054-.135a3.819,3.819,0,0,0,.485-.216,11.678,11.678,0,0,1,2.7-.7,15.406,15.406,0,0,1,1.914-.216c.135,0,.189.027.189.189,0,.216,0,.216-.162.243a.5.5,0,0,0-.189.054c-.108.054-.162.027-.243-.054a.6.6,0,0,0-.917-.054c-.216.189-.216.189,0,.377.081.054.108.081.162-.027a.821.821,0,0,1,.216-.216.407.407,0,0,1,.512.027c.054.054.054.081,0,.135-.081.054-.135.135-.216.189a1.5,1.5,0,0,1,.216.162c.054.054.081.027.135-.027a.717.717,0,0,1,.3-.27c.216-.108.377-.027.377.216a3,3,0,0,1-.054.458.56.56,0,0,0-.324-.135,1.572,1.572,0,0,0-.593.081,2.524,2.524,0,0,1-.431.108q-.2.04-.162-.162c0-.081.027-.135.027-.216-.162.054-.162.054-.189.108-.081.377.135.593.512.539a.1.1,0,0,0,.081-.027L42.8,20.7c.189-.027.377-.081.539.108a.124.124,0,0,0,.189-.081,2.115,2.115,0,0,0,.054-.377.616.616,0,0,0-.27-.674c-.027,0-.054-.027,0-.054a.429.429,0,0,0,.081-.351c0-.054,0-.108.081-.108.189,0,.4.027.593.027.054,0,.081.027.054.081v.135c-.054.458-.081.89-.135,1.348,0,.027-.027.081,0,.081a1.011,1.011,0,0,0,.3.027c.054,0,.027-.081.054-.135.027-.431.081-.863.108-1.294.027-.189.027-.189.189-.162.081,0,.108-.027.108-.108v-.081C44.961,19.139,44.907,19.085,44.773,19.112ZM33.206,24.073c-.081.243-.135.485-.216.728-.027.135-.054.135-.162.054a.246.246,0,0,0-.324,0c-.054.027-.108.027-.108-.054a.878.878,0,0,1,.485-.755.8.8,0,0,1,.27-.054C33.233,23.965,33.233,24.019,33.206,24.073Z" transform="translate(-29.439 -18.156)" fill="#1a9b50"/>
            <path id="Path_1590" data-name="Path 1590" d="M31.955,28.556c-.512-.108-1.025-.243-1.537-.377.027-.081.027-.135.054-.216s-.027-.081-.054-.081c-.108-.027-.189-.135-.3-.054-.027,0-.027.054-.027.081-.027.135-.081.27-.108.4-.054.243-.054.243.189.27.108,0,.108.027.054.108a2.477,2.477,0,0,0-.431.728,1.3,1.3,0,0,0,.431,1.456c.162.108.243.081.3-.108a1.214,1.214,0,0,0,0-.539.752.752,0,0,1,.027-.485c.081-.189.162-.189.3-.054a1.269,1.269,0,0,1,.3.7c.081-.054.162-.135.243-.189a.1.1,0,0,0,.027-.081,1.905,1.905,0,0,0-.3-.674c-.216-.27-.458-.243-.62.054a3.414,3.414,0,0,0-.162.485c-.027.054-.027.135-.081.135-.081,0-.108-.081-.135-.135a.094.094,0,0,0-.027-.054,1.183,1.183,0,0,1,.324-1.132c.054-.054.081-.054.135-.027.351.081.7.162,1.025.216s.324.054.4-.243C32.063,28.583,32.036,28.583,31.955,28.556Z" transform="translate(-29.725 -16.951)" fill="#1a9b50"/>
            <path id="Path_1591" data-name="Path 1591" d="M32.917,26.281c-.431-.216-.863-.458-1.267-.674-.081-.027-.108-.054-.054-.135.162-.27.162-.27-.135-.377-.054-.027-.081-.027-.108.027a5.009,5.009,0,0,1-.3.512c-.027.054-.027.081.027.135l.243.162a2.211,2.211,0,0,0-.539.458,1.2,1.2,0,0,0-.081,1.591.545.545,0,0,0,1-.135,1.9,1.9,0,0,0,.108-.782c0-.054-.027-.081-.081-.054h-.351a1.765,1.765,0,0,1,.027.836.352.352,0,0,1-.27.243c-.135,0-.189-.108-.216-.216a1.363,1.363,0,0,1,.539-1.645.369.369,0,0,1,.4-.027c.216.108.431.243.647.351a.747.747,0,0,0,.243.135c.081-.027.108-.162.162-.243C33.025,26.335,33,26.308,32.917,26.281Z" transform="translate(-29.636 -17.291)" fill="#1a9b50"/>
            <path id="Path_1592" data-name="Path 1592" d="M55.077,31.668a3.614,3.614,0,0,1-.027-.539c0-.081-.027-.081-.108-.081-.162,0-.3.027-.458.027a1.093,1.093,0,0,0,.135-.243.7.7,0,0,0-.027-.755,1.079,1.079,0,0,0-.27-.324c-.081-.081-.108-.135-.027-.216a.939.939,0,0,0,.27-.782,2.284,2.284,0,0,0-.108-.458,12.354,12.354,0,0,0-1.078-2.534,13.77,13.77,0,0,0-1.806-2.507,14.431,14.431,0,0,0-2.157-1.914c-.189-.135-.189-.135-.351.027-.054.054-.054.081,0,.135.27.216.539.458.809.674l1.132.971c.054.054.081.081,0,.135s-.162.135-.243.189c-.054.054-.081.054-.108-.027a.779.779,0,0,0-.755-.62c-.081,0-.081-.054-.108-.108a1.238,1.238,0,0,0-.3-.593.661.661,0,0,0-.971-.027.542.542,0,0,0,.054.809,1.022,1.022,0,0,0,.351.162c.216.054.216.054.216-.162v-.054c0-.081-.027-.108-.081-.108a.619.619,0,0,1-.377-.108.218.218,0,0,1-.108-.243c.027-.108.081-.135.189-.162a.716.716,0,0,1,.89.512,2,2,0,0,1,.027.566.635.635,0,0,1,.216-.054.584.584,0,0,1,.647.27.143.143,0,0,1-.027.216c-.189.135-.351.3-.539.431s-.162.135-.027.324c.054.081.081.081.162.027.377-.324.755-.647,1.132-.944.054-.054.081-.054.135.027.081.108.162.189.243.3.054.081.054.108-.027.162-.351.243-.7.512-1.052.755-.189.135-.189.135-.054.324.054.081.081.081.189.027.4-.3.809-.566,1.213-.863.027-.027.054-.081.108-.027.162.243.351.485.512.755-.054.027-.081,0-.135,0a1.314,1.314,0,0,0-.647,0,.772.772,0,0,0-.216,1.456,1.857,1.857,0,0,1,.081-.216c.027-.081.027-.108-.054-.135a.387.387,0,0,1-.27-.431.4.4,0,0,1,.324-.377,1.094,1.094,0,0,1,.917.135,4.145,4.145,0,0,1,.512.458c.054.054.054.081-.027.108-.243.108-.485.216-.7.324-.351.162-.351.162-.3.539a.138.138,0,0,0,.108.135,3.265,3.265,0,0,1,.809.674,2.343,2.343,0,0,0-.863.3c-.081.054-.027.081-.027.135.027.081.081.027.108,0a.76.76,0,0,1,.755-.081,1.445,1.445,0,0,0,.3.135c0-.054.027-.081.027-.135.108-.512.108-.485-.243-.863-.162-.162-.324-.351-.485-.512.189-.108.4-.189.62-.324.108-.081.162-.054.216.081a15.324,15.324,0,0,1,.863,2.184,1.338,1.338,0,0,1,.027.728.351.351,0,0,1-.431.27c-.162-.027-.243-.108-.27-.324V29.16c0-.108.054-.243-.027-.3s-.216-.027-.324-.027a.071.071,0,0,0-.081.081.871.871,0,0,0,.485.863c.027,0,.054.027.081.054a.588.588,0,0,1-.108.135.647.647,0,0,0,0,.755c.054.054.081.081.135.027a.587.587,0,0,1,.216-.135c.054-.027.054-.054.027-.108a.529.529,0,0,1-.135-.4c.027-.135.081-.189.216-.162a.571.571,0,0,1,.458.62.489.489,0,0,1-.485.512,5.636,5.636,0,0,1-.674.027c-.27,0-.243,0-.243.27,0,.108.027.135.135.135l1.429-.081c.054,0,.108,0,.108.081.027.27.027.27.3.243h.027A.118.118,0,0,0,55.077,31.668Z" transform="translate(-27.395 -17.77)" fill="#1a9b50"/>
            <path id="Path_1593" data-name="Path 1593" d="M47.525,20.547c.108.054.162.027.216-.081,0-.027.027-.054.027-.081.054-.081.054-.135-.054-.189a14.147,14.147,0,0,0-2.966-.971c-.3-.081-.3-.054-.377.216-.027.054,0,.081.054.081.62.108,1.186.3,1.78.458.027,0,.108,0,.081.081-.027.054-.027.108-.108.108a.459.459,0,0,1-.189-.027c-.539-.054-1.078-.081-1.618-.135q-.081-.04-.081.081c.027.27.027.27.3.351a1.6,1.6,0,0,1,1.159,1.105c.027.054.027.108.108.108s.081-.054.108-.108c.189-.431.4-.89.593-1.321.027-.081.081-.108.162-.054.108.054.216.108.351.162.081.027.081.081.054.135-.189.4-.4.809-.593,1.186-.108.216-.108.216.108.3.108.054.135.027.162-.081.189-.431.4-.863.593-1.294C47.418,20.52,47.445,20.493,47.525,20.547Zm-1.7.377a4.362,4.362,0,0,0-.485-.512,6.817,6.817,0,0,0,.755-.027A2.516,2.516,0,0,1,45.827,20.924Z" transform="translate(-27.905 -18.027)" fill="#1a9b50"/>
            <path id="Path_1594" data-name="Path 1594" d="M48.778,21.232a.647.647,0,0,0-.189-.674.724.724,0,0,0-.89-.027.509.509,0,0,0-.27.512.563.563,0,0,0,.324.485,1.189,1.189,0,0,0,.377.081A.634.634,0,0,0,48.778,21.232Zm-.324.054a1.147,1.147,0,0,1-.3.054,1.082,1.082,0,0,1-.4-.081c-.108-.054-.162-.108-.162-.216a.236.236,0,0,1,.162-.243,1.038,1.038,0,0,1,.7-.027c.162.054.243.135.216.27C48.67,21.178,48.562,21.232,48.455,21.286Z" transform="translate(-27.513 -17.876)" fill="#1a9b50"/>
            <path id="Path_1595" data-name="Path 1595" d="M47.369,21.509c-.135-.135-.135-.135-.243.027s-.108.162.054.27a1.889,1.889,0,0,1,.27.216,1.734,1.734,0,0,1,.62.89.224.224,0,0,0,.054-.324A4.313,4.313,0,0,0,47.369,21.509Z" transform="translate(-27.56 -17.749)" fill="#1a9b50"/>
          </g>
          <g id="Group_1312" data-name="Group 1312" transform="translate(8.223 24.95)">
            <path id="Path_1596" data-name="Path 1596" d="M50.159,41.713c-.216-.377-.458-.782-.7-1.159-.054-.108-.054-.162.054-.216.243-.135.216-.135.054-.351-.054-.054-.081-.054-.135-.027-.135.081-.27.189-.4.27a12.527,12.527,0,0,1-6.04,1.645,11.163,11.163,0,0,1-2.507-.27,11.5,11.5,0,0,1-4.53-2.049c-.162-.135-.162-.135-.324.027-.054.054-.054.081,0,.135a.224.224,0,0,1,.081.216c-.027.054.027.108.081.135a1.183,1.183,0,0,1,.431.377.328.328,0,0,1,0,.431.5.5,0,0,1-.539.135c-.135-.054-.189-.162-.162-.377,0-.027.027-.054-.027-.081-.135-.054-.189-.027-.189.135V40.8a.624.624,0,0,0,.7.647c.108,0,.216-.027.351-.027a3.074,3.074,0,0,1,.7-.054.459.459,0,0,1,.377.7.676.676,0,0,0-.108.189c-.054.081-.162.189-.135.27s.189.108.27.135c.081.054.108.027.162-.054.189-.431.377-.836.566-1.267.054-.108.081-.108.189-.081.108.054.243.108.351.162a10.855,10.855,0,0,0,2.049.512c.054,0,.135-.027.135.081s-.081.081-.135.081c-.566-.027-1.132-.027-1.726-.027-.351,0-.351,0-.351.351h0a.071.071,0,0,0,.081.081,2.48,2.48,0,0,1,1.806.971.4.4,0,0,0,.351.162c.081,0,.081-.027.108-.081.081-.458.135-.944.216-1.4,0-.081.054-.108.135-.108a10.307,10.307,0,0,0,2.238.081c.135,0,.243-.027.377-.027.027,0,.081,0,.081.054s0,.081-.054.081c-.027,0-.054.027-.081.027-.62.189-1.24.351-1.86.539-.081.027-.081.054-.054.108.081.189.216.3.431.216h.054a2.092,2.092,0,0,1,1.537.458.434.434,0,0,0,.431.108c.081,0,.135-.027.108-.135-.027-.324-.054-.674-.081-1,0-.054,0-.108.081-.108a1.671,1.671,0,0,1,.728-.054c.108,0,.162.081.162.189.027.108-.054.135-.135.162a1.555,1.555,0,0,1-.377.081c0,.027.027.054.027.081.108.3.162.324.458.135a.453.453,0,0,0,.243-.458.51.51,0,0,0-.324-.377,2.239,2.239,0,0,0-.728-.081c-.027,0-.108.027-.108-.054s.054-.054.108-.054a7.176,7.176,0,0,0,1.321-.27c.108-.027.135,0,.162.081l.324,1.213c.081.27.081.27.351.189.081-.027.081-.054.081-.135-.135-.458-.27-.917-.377-1.375-.027-.054-.027-.108.054-.135a13.384,13.384,0,0,0,2.4-1.025c.027-.027.081-.081.108,0,.054.081-.027.081-.054.108-.27.216-.539.431-.836.647l-.809.647a2.866,2.866,0,0,1,.3.243c.054.027.081.027.108,0a1.173,1.173,0,0,1,.512-.27,3.331,3.331,0,0,1,1.159-.108,4.023,4.023,0,0,1,.566.054c.108,0,.135-.054.189-.108C50.24,41.793,50.186,41.766,50.159,41.713Zm-12.268-.485c-.054.108-.108.243-.162.351q-.04.081-.081,0c-.027-.054-.081-.108-.081-.162a.781.781,0,0,0-.863-.485c-.189,0-.189,0-.189-.189a1.106,1.106,0,0,0-.027-.3v-.027c.3.162.566.3.863.458l.485.243C37.918,41.119,37.918,41.146,37.891,41.227ZM40.8,42.683c-.027.162-.054.351-.081.539a5.442,5.442,0,0,0-.728-.647h.755C40.83,42.575,40.83,42.629,40.8,42.683Zm2.481.243c.3-.108.566-.189.863-.27.027.27.027.512.054.809A4.536,4.536,0,0,0,43.283,42.926ZM48.649,41.6c.216-.189.377-.351.566-.512.054-.027.054-.027.081,0,.108.162.216.324.324.512A5.833,5.833,0,0,0,48.649,41.6Z" transform="translate(-35.303 -39.458)" fill="#1a9b50"/>
            <path id="Path_1597" data-name="Path 1597" d="M39.338,42.9a2.372,2.372,0,0,0-.27-.162c-.189-.081-.243-.054-.243.162a.1.1,0,0,0,.027.081,1.277,1.277,0,0,1,.512.324C39.527,43.033,39.527,43.033,39.338,42.9Z" transform="translate(-34.862 -39.053)" fill="#1a9b50"/>
            <path id="Path_1598" data-name="Path 1598" d="M47.819,41.852c.027-.081-.054-.054-.108-.054a1.13,1.13,0,0,0-.4.108c-.216.081-.216.081-.135.324a1.83,1.83,0,0,1,.539-.189C47.873,42.014,47.792,41.933,47.819,41.852Z" transform="translate(-33.825 -39.166)" fill="#1a9b50"/>
          </g>
          <path id="Path_1599" data-name="Path 1599" d="M43.943,36.86c-.081,0-.135.108-.189.027a.205.205,0,0,1,.027-.243.726.726,0,0,0,.135-.4.125.125,0,0,0-.081-.135c-.081-.027-.081.054-.081.081a1.155,1.155,0,0,1-.135.431,1.063,1.063,0,0,1-.512.458c-.054.027-.135.054-.162-.027-.027-.027-.054-.027-.054,0-.054.054-.135.054-.162.135h0c-.054,0-.054.054-.081.081a.179.179,0,0,1-.135.108c-.081,0-.162-.027-.189.108,0,.054-.081.054-.108.027-.081-.081-.108,0-.135.027-.162.162-.27.189-.458.054l-.027-.027c-.162-.027-.189-.135-.162-.27a.227.227,0,0,0-.189-.189c-.027,0-.054,0-.054.054,0,.027.027.081-.054.081-.027-.054-.027-.108-.054-.162a.172.172,0,0,0,0,.162.127.127,0,0,1-.027.162c-.054.027-.081.054-.135.027s-.108-.054-.108-.135a.4.4,0,0,1,.108-.324c-.054-.027-.108-.027-.135-.054,0-.027-.054-.054-.054-.054a1.889,1.889,0,0,1-.377-.081c-.054,0-.081.027-.081.054s-.027.081-.027.108,0,.108-.054.108-.081-.054-.081-.108c0-.027.027-.081-.027-.108a.083.083,0,0,0-.054.027c-.027.054-.027.081.027.108a.257.257,0,0,1,.054.27c0,.027,0,.054-.054.081-.108.054-.135.108-.081.216.081.108.027.189-.054.27-.108.108-.216.081-.243-.054-.027-.054-.027-.108-.081-.135s-.054-.081-.054-.135.054-.054.081-.054c.054,0,.108.027.108-.054s.027-.135-.054-.216l-.135-.135c-.054-.054-.108-.135-.027-.216a.057.057,0,0,0-.081-.081.148.148,0,0,0-.081.135.651.651,0,0,0,.081.431.678.678,0,0,1,.054.4.58.58,0,0,0,0,.216c.027.054-.081.189-.162.162-.081,0-.081-.081-.081-.162v-.27c0-.054,0-.135-.108-.081-.108.027-.135-.081-.135-.135-.027-.054,0-.135,0-.189-.027.135-.081.3.081.377.054.027.054.108.054.162s-.081.081-.135.081c-.027,0-.054.027-.081-.027-.081-.135-.216-.216-.189-.4v-.189a.1.1,0,0,1,.027-.081c.162-.027.081-.135.081-.216-.027-.081-.027-.162-.054-.243a.162.162,0,0,1,.027-.108c.108-.081.027-.189-.027-.243a.527.527,0,0,1-.162-.512.747.747,0,0,0-.081-.539.14.14,0,0,1,.027-.216c.054-.054.054-.081-.027-.135s-.081-.108-.027-.162a.2.2,0,0,0,0-.27,2.72,2.72,0,0,1-.189-.4.517.517,0,0,1,.243-.485c.027-.027.108-.027.081-.081,0-.054-.081-.054-.108-.054a2.04,2.04,0,0,1-.4-.027.216.216,0,0,1-.135-.351c.054-.081.054-.216.135-.3.027-.027,0-.054-.027-.081a.6.6,0,0,1-.377-.3c-.027-.054-.135-.054-.135-.135a.932.932,0,0,1,.054-.539.717.717,0,0,1,.3-.27.25.25,0,0,0,.108-.324.5.5,0,0,1-.054-.189.162.162,0,0,1,.027-.108c.135-.108.081-.243.054-.351a.235.235,0,0,0-.243-.108.575.575,0,0,1-.324-.081A6.468,6.468,0,0,1,36.8,29.9a2.939,2.939,0,0,1-.485-.512.133.133,0,0,1,.027-.189,1.808,1.808,0,0,0,.243-.377.29.29,0,0,0,.054-.216c0-.054-.027-.108.027-.135a.2.2,0,0,1,.216.027l.081.081c.135.081.135.081.162-.081a.071.071,0,0,1,.081-.081.208.208,0,0,0,.189-.216,2.041,2.041,0,0,0,.027-.4c-.027-.081.054-.081.081-.081a.486.486,0,0,1,.27.054.172.172,0,0,0,.162,0,.205.205,0,0,1,.27,0,.243.243,0,0,0,.27.027H38.5c.054-.027.162.081.162-.054a.3.3,0,0,0-.108-.351.411.411,0,0,1-.162-.3c0-.162-.027-.162-.189-.135a.571.571,0,0,1-.728-.351c-.054-.108-.108-.216-.243-.243a.476.476,0,0,1-.243-.216c-.027-.027-.054-.081-.108-.054-.27.108-.351.027-.324-.27a.471.471,0,0,1,.108-.324.257.257,0,0,0,.054-.189.406.406,0,0,1,.324-.4.236.236,0,0,0,.189-.162.529.529,0,0,1,.243-.243c.108-.027.108-.108.081-.189a.136.136,0,0,0-.189-.108c-.054.027-.135.054-.189,0s-.027-.135,0-.216.108-.162.135-.243c0-.054.054-.054.108-.054a.071.071,0,0,1,.081.081c0,.135.054.162.162.216a2.111,2.111,0,0,1,.539.431c.108.135.3.189.351.4.081-.162.189-.162.27-.081.027.027.081.054.108.081a.051.051,0,0,0,.081,0c.027-.054,0-.054-.027-.081-.054-.054-.108-.081-.162-.135a.372.372,0,0,1-.081-.108c-.027-.162.054-.216.189-.189a.609.609,0,0,1,.377.351,1.578,1.578,0,0,1,.054.351c.027.108.054.189.162.216a.026.026,0,0,1,.027.027c.135.216.377.216.593.3.081.027.162-.027.243.027.027,0,.027,0,.027-.027.027-.081.108-.162.027-.3-.054-.081.081-.3.162-.324s.135-.027.162.081a.058.058,0,0,0,.054.054c.135.027.162.162.162.27a.206.206,0,0,0,.054.135c.108.081.162.216.27.3a.169.169,0,0,1,.054.216l-.162.243c-.108.081-.081.189,0,.3a.16.16,0,0,1,.027.189,2.936,2.936,0,0,0-.135.7c0,.108.027.162.162.162a.634.634,0,0,1,.431.135c.027.027.027.027.054.027.324.027.647.189.971.243.054,0,.135.027.189,0a1.54,1.54,0,0,1,.782-.027.592.592,0,0,0,.377-.027.872.872,0,0,1,.458-.081c.027,0,.081.027.108.027.324-.081.566.108.836.162.081.027.108,0,.135-.054a.126.126,0,0,1,.216,0c.054.108.135.081.216.054a1.315,1.315,0,0,1,.539-.081,1.427,1.427,0,0,1,.809.243.808.808,0,0,0,.27.108.456.456,0,0,1,.27.189.9.9,0,0,1,.162.27c.027.054.027.108-.054.135a.43.43,0,0,1-.4,0c-.027-.027-.081-.081-.135-.027s-.027.108.027.162a.245.245,0,0,1,.027.3.776.776,0,0,0-.081.431c0,.108-.054.162-.162.135-.081,0-.108.027-.108.108a.162.162,0,0,1-.027.108c-.027.135-.081.189-.216.162h-.108c-.081,0-.108.027-.054.108s0,.135-.054.135c-.081,0-.081.054-.108.108a.565.565,0,0,1-.108.3c-.027.027-.027.081-.108.054-.054-.027-.081-.027-.081-.081v-.054a.143.143,0,0,0-.189-.108c-.108.027-.027.108-.027.135s.054.081.027.108-.081,0-.108-.027a.435.435,0,0,1-.189-.108l-.081.243c-.027.054-.054.081-.108.081a1.578,1.578,0,0,1-.351-.054c-.054-.027-.108-.054-.135.054,0,.081-.054.135-.081.216-.027.054-.054.054-.081.054-.135,0-.216.081-.216.243a.969.969,0,0,1-.054.3.243.243,0,0,1-.162.162c.054.081.081.135.027.216a.172.172,0,0,0,0,.162,2,2,0,0,1,.324,1.025,1.422,1.422,0,0,0,.081.324c0,.027,0,.054.054.054.027,0,.027-.054.027-.081a.583.583,0,0,1-.027-.3c0-.081.054-.081.108-.108.081-.027.108,0,.135.054a1.328,1.328,0,0,1,.162.458c0,.054.027.081.027.135.135.3.27.243.485.081a.346.346,0,0,0,.108-.485.367.367,0,0,1,0-.4c.027-.027.027-.081.081-.081.135-.081.189-.243.351-.3.054-.027.054-.054.054-.108,0-.162-.081-.324-.027-.485.027-.054.027-.108.108-.108a.148.148,0,0,1,.135.054q.121.2.243,0c.027-.027.027-.081.081-.108s.108-.054.162.027c.027.081.108.081.162,0,.027-.027.027-.054.081-.027.027.027.081.027.054.081-.054.351.162.647.216,1a.459.459,0,0,1,0,.27.986.986,0,0,0,0,.485c0,.027.027.054.027.081-.054.3.216.539.216.836,0,.027.027.054.027.081.135.054.108.189.108.3v.054c.162.27.054.566.108.863a1.986,1.986,0,0,1,.108.377.2.2,0,0,1-.054.162.205.205,0,0,0-.027.243,1.142,1.142,0,0,1,.054.674,3,3,0,0,0,.135,1.375c.027.081,0,.108-.054.162-.135.108-.189.108-.27-.054-.027-.027-.027-.054-.054-.108a.113.113,0,0,0-.162-.081c-.162.054-.162.054-.243-.108-.027-.054-.054-.135-.108-.108a.371.371,0,0,0-.216.135c-.027.027-.027.054-.054.081a.522.522,0,0,0-.027.755.359.359,0,0,1,.081.216,1.883,1.883,0,0,0,.216.539,1.215,1.215,0,0,1,.081.3c0,.054-.027.081-.108.054a.362.362,0,0,1-.162-.189c-.054-.135-.162-.243-.216-.377a2.343,2.343,0,0,0-.431-.7.275.275,0,0,1-.054-.243.706.706,0,0,0-.135-.458l-.027-.027c0-.135-.081-.189-.216-.216a.076.076,0,0,1-.054-.135.367.367,0,0,0,0-.4,1,1,0,0,1-.081-.62c0-.027,0-.054.027-.054.135-.054.081-.162.081-.243a1.252,1.252,0,0,0-.162-.62c-.108-.216-.081-.458-.216-.674a7.417,7.417,0,0,0-.512-.755.056.056,0,0,0-.108,0l-.027.027a.464.464,0,0,0-.3.3c-.054.108-.216.135-.351.135h-.431c-.081,0-.108.027-.108.108a4.054,4.054,0,0,1,0,.809c-.027.162-.108.27-.135.4Zm-1.025-.108c-.054-.054-.108,0-.135.027a.846.846,0,0,1-.431.162.486.486,0,0,1-.27-.027.106.106,0,0,0-.162.081c-.027.054-.027.108.027.135a.291.291,0,0,0,.3,0c.108-.054.216-.162.351-.108A.094.094,0,0,0,42.649,37,1.159,1.159,0,0,1,42.918,36.753Zm3.37.944c0,.108.081.135.108.189h.027v-.054C46.4,37.777,46.342,37.75,46.288,37.7Zm-5.177-.755c.054-.054.027-.108,0-.162,0-.027-.027,0-.027,0-.081.054,0,.108.027.162Z" transform="translate(-26.957 -16.477)" fill="#faec24"/>
          <path id="Path_1600" data-name="Path 1600" d="M43.093,35.536a.178.178,0,0,0,.189-.162,4.93,4.93,0,0,0,.054-.89v-.027c-.027-.135,0-.162.135-.162.189,0,.27.081.351.27.027.054.027.081-.027.108s-.108.027-.135-.027c0-.027-.027-.027-.027-.054-.027-.027-.027-.081-.054-.054-.054.027,0,.054,0,.081a.058.058,0,0,0,.054.054.53.53,0,0,1-.027.674.821.821,0,0,1-.216.216.094.094,0,0,0-.054.027c-.027.081-.054.135-.135.108-.108,0-.135-.081-.108-.162Z" transform="translate(-26.107 -15.153)" fill="#f9e526"/>
          <path id="Path_1601" data-name="Path 1601" d="M44.557,34.629a.228.228,0,0,1-.054.189c-.108.081-.135.081-.243-.027a.67.67,0,0,1-.108-.7c.027-.081.081-.108.135-.054a.283.283,0,0,1,.135.243C44.449,34.386,44.584,34.494,44.557,34.629Z" transform="translate(-25.98 -15.189)" fill="#f9e526"/>
          <path id="Path_1602" data-name="Path 1602" d="M40.123,36.037c.054.054.135.108.027.189a.1.1,0,0,1-.162,0l-.081-.081c-.027.054.027.108,0,.162-.027.027,0,.108-.081.108a.1.1,0,0,1-.108-.108v-.054c-.108-.135-.027-.3,0-.431,0-.054-.027-.135.054-.135.054,0,.162,0,.189.108a.383.383,0,0,0,.054.162c0,.027.027.054.054.027h0c.027.054.054.054.054.054Z" transform="translate(-26.534 -14.979)" fill="#f9e225"/>
          <path id="Path_1603" data-name="Path 1603" d="M40.053,36.041a.831.831,0,0,1,0-.512.113.113,0,0,1,.162-.081.116.116,0,0,1,.054.189.242.242,0,0,0,.027.3c.027.027.081.081.027.135-.027.054-.081.027-.135.027a.162.162,0,0,1-.108-.027h0c0-.027,0-.054-.027-.027Z" transform="translate(-26.491 -15.01)" fill="#f9e225"/>
          <path id="Path_1604" data-name="Path 1604" d="M42.014,35.667c.054.027.081,0,.135,0,.027,0,.081-.027.081,0,.054.135.108.054.189,0,.135-.081.135-.054.162.108h0c-.054.027-.081.081-.135.081-.081.054-.162.027-.162-.081l-.108.108a.089.089,0,0,1-.135,0c-.054-.027-.027-.081-.027-.135,0,0,.027-.027,0-.081Z" transform="translate(-26.241 -14.987)" fill="#f8df24"/>
          <path id="Path_1605" data-name="Path 1605" d="M42.5,35.758a.215.215,0,0,1,.108.351c-.054.054-.108.027-.162.027s-.054-.054-.054-.081a.1.1,0,0,1,.027-.081c.081-.027.081-.135.081-.216Z" transform="translate(-26.192 -14.97)" fill="#f8df24"/>
          <path id="Path_1606" data-name="Path 1606" d="M42.074,35.984c0,.081-.081.135-.135.108a.383.383,0,0,0-.162-.054c-.054-.027-.027-.054-.027-.108,0-.027.027-.054.081-.027a.508.508,0,0,0,.216.054A.026.026,0,0,1,42.074,35.984Z" transform="translate(-26.274 -14.953)" fill="#f9e225"/>
          <path id="Path_1607" data-name="Path 1607" d="M39.266,36.4c-.027-.027-.081-.027-.081-.081a.058.058,0,0,1,.054-.054c.027,0,.054.054.081.081C39.32,36.369,39.293,36.369,39.266,36.4Z" transform="translate(-26.594 -14.907)" fill="#f8df24"/>
          <path id="Path_1608" data-name="Path 1608" d="M42.294,35.305c-.135.054-.189.162-.27.243-.027.027-.027.054-.054.027-.162-.054-.243.054-.351.108a.554.554,0,0,1-.3,0c-.054-.027-.054-.081-.027-.135a.12.12,0,0,1,.162-.081.831.831,0,0,0,.27.027.764.764,0,0,0,.431-.162C42.213,35.305,42.24,35.251,42.294,35.305Z" transform="translate(-26.332 -15.03)" fill="#eb3729"/>
          <path id="Path_1609" data-name="Path 1609" d="M45.177,36.141c.054.054.108.081.135.135v.054h-.027C45.258,36.249,45.177,36.249,45.177,36.141Z" transform="translate(-25.845 -14.922)" fill="#eb3729"/>
          <path id="Path_1610" data-name="Path 1610" d="M40.581,35.49h0c-.027-.054-.081-.108-.027-.162,0,0,.027-.027.027,0C40.581,35.382,40.635,35.436,40.581,35.49Z" transform="translate(-26.426 -15.025)" fill="#eb3729"/>
          <path id="Path_1611" data-name="Path 1611" d="M40.024,35.975c.027-.027.054,0,.054.027A.084.084,0,0,1,40.024,35.975Z" transform="translate(-26.489 -14.944)" fill="#ea272a"/>
          <g id="Group_1313" data-name="Group 1313">
            <path id="Path_1612" data-name="Path 1612" d="M43.685,48.664a15.206,15.206,0,0,1-6.093-1.24,15.536,15.536,0,0,1-4.988-3.37,16.134,16.134,0,0,1-3.37-4.988,15.781,15.781,0,0,1-1.24-6.093,15.206,15.206,0,0,1,1.24-6.093A15.536,15.536,0,0,1,32.6,21.89a16.134,16.134,0,0,1,4.988-3.37,15.781,15.781,0,0,1,6.093-1.24,15.207,15.207,0,0,1,6.093,1.24,15.536,15.536,0,0,1,4.988,3.37,16.134,16.134,0,0,1,3.37,4.988,15.781,15.781,0,0,1,1.24,6.093,15.206,15.206,0,0,1-1.24,6.093,15.536,15.536,0,0,1-3.37,4.988,16.134,16.134,0,0,1-4.988,3.37A15.68,15.68,0,0,1,43.685,48.664Zm0-30.71A15.018,15.018,0,1,0,58.7,32.972,15.04,15.04,0,0,0,43.685,17.954Z" transform="translate(-27.993 -17.28)" fill="#169a4d"/>
          </g>
        </g>
        <path id="Path_1613" data-name="Path 1613" d="M6.255,49.865a1.449,1.449,0,0,1,.135.566,1.011,1.011,0,0,1-.027.3.807.807,0,0,1-.108.27.821.821,0,0,1-.216.216,1,1,0,0,1-.3.135v3.289h-.3a5.254,5.254,0,0,0-.485-.7,3.18,3.18,0,0,0-.566-.485,2.717,2.717,0,0,0-.62-.324,5.324,5.324,0,0,0-.7-.216v-.62a2.663,2.663,0,0,1,.4-.243c.162-.081.351-.189.539-.27s.377-.162.593-.243A2.649,2.649,0,0,1,5.2,51.4v-.054a1.283,1.283,0,0,1-.485-.216,1.723,1.723,0,0,1-.4-.351A1.6,1.6,0,0,1,4.206,51a1.35,1.35,0,0,1-.189.216,1.892,1.892,0,0,1-.243.162.58.58,0,0,1-.3.054.746.746,0,0,1-.351-.081.587.587,0,0,1-.243-.189.843.843,0,0,1-.135-.27,1.187,1.187,0,0,1-.054-.27h.485a.435.435,0,0,0,.081.243.328.328,0,0,0,.431,0,.715.715,0,0,0,.135-.162l.081-.243a.831.831,0,0,0,.027-.27A.459.459,0,0,0,3.91,50a.289.289,0,0,0-.054-.162H1.941v-.485H6.875v.485h-.62Zm-2.723,2.8a4.863,4.863,0,0,0,.512.135,2.087,2.087,0,0,1,.431.189,1.485,1.485,0,0,1,.377.243,1.915,1.915,0,0,1,.351.324h.027V51.941a1.391,1.391,0,0,0-.3.054,1.52,1.52,0,0,0-.324.108c-.108.027-.216.081-.324.108a3.163,3.163,0,0,0-.3.135,1.956,1.956,0,0,0-.243.135,1.547,1.547,0,0,1-.189.108v.081Zm.836-2.8a.518.518,0,0,0,.108.324,2.53,2.53,0,0,0,.243.324,1.267,1.267,0,0,0,.324.243.593.593,0,0,0,.351.108.746.746,0,0,0,.243-.027.564.564,0,0,0,.162-.108l.081-.162a.459.459,0,0,0,.027-.189.917.917,0,0,0-.027-.27.958.958,0,0,0-.108-.243h-1.4Zm2.966.512a.39.39,0,0,0-.054-.189.5.5,0,0,0-.27-.27.526.526,0,0,0-.216-.027H6.66v-.485h.135a.526.526,0,0,1,.189.027.634.634,0,0,1,.216.054.542.542,0,0,1,.216.108,1.125,1.125,0,0,1,.216.162V49.73a.508.508,0,0,1,.054-.216.163.163,0,0,1,.162-.081H8.6v.485H8.466a.526.526,0,0,0-.216.027.676.676,0,0,0-.189.108.564.564,0,0,0-.108.162A.5.5,0,0,0,7.9,50.4v3.936H7.361V50.377Zm5.069-.512a1.449,1.449,0,0,1,.135.566,1.353,1.353,0,0,1-.054.324,1,1,0,0,1-.135.3.637.637,0,0,1-.243.216,1.335,1.335,0,0,1-.351.108,1.48,1.48,0,0,1,.458.135,1.131,1.131,0,0,1,.377.243,1.267,1.267,0,0,1,.243.324.985.985,0,0,1,.081.4.791.791,0,0,1-.108.431,1.21,1.21,0,0,1-.3.351,3.515,3.515,0,0,1-.4.27c-.162.081-.324.135-.458.189v.027l.566.243c.189.108.351.216.539.324a2.148,2.148,0,0,1,.458.4,3.1,3.1,0,0,1,.377.458l-.351.351a2.857,2.857,0,0,0-.27-.324c-.108-.108-.27-.243-.4-.377a3.7,3.7,0,0,0-.539-.351c-.189-.108-.4-.216-.62-.324a3.08,3.08,0,0,0-.7-.243,3.645,3.645,0,0,0-.782-.135l.054-.539h.135c.054,0,.108.027.162.027s.108.027.162.027.108.027.162.027h.27a1.313,1.313,0,0,0,.324-.027c.108-.027.243-.027.351-.054a1.52,1.52,0,0,0,.324-.108.9.9,0,0,0,.27-.162,1.246,1.246,0,0,0,.189-.189.4.4,0,0,0,0-.485.63.63,0,0,0-.189-.189A.958.958,0,0,0,11.89,52a.746.746,0,0,0-.243-.027h-.054a.843.843,0,0,1-.135.27.727.727,0,0,1-.216.189,1.093,1.093,0,0,1-.243.135.787.787,0,0,1-.243.054.4.4,0,0,1-.189-.027.269.269,0,0,1-.135-.108c-.027-.054-.054-.081-.081-.135a.342.342,0,0,1-.027-.162.787.787,0,0,1,.054-.243.484.484,0,0,1,.135-.189.587.587,0,0,1,.216-.135c.081-.027.162-.081.243-.108a.8.8,0,0,1,.27-.054.746.746,0,0,1,.243-.027.52.52,0,0,1-.27-.081.844.844,0,0,1-.27-.135l-.243-.162c-.081-.054-.135-.135-.216-.189a1.6,1.6,0,0,1-.108.216,1.35,1.35,0,0,1-.189.216,1.892,1.892,0,0,1-.243.162.581.581,0,0,1-.3.054.746.746,0,0,1-.351-.081.587.587,0,0,1-.243-.189.843.843,0,0,1-.135-.27,1.187,1.187,0,0,1-.054-.27h.485a.435.435,0,0,0,.081.243.328.328,0,0,0,.431,0A.715.715,0,0,0,10,50.782l.081-.243a.831.831,0,0,0,.027-.27.459.459,0,0,0-.027-.189.289.289,0,0,0-.054-.162h-1.7v-.485h5.2v.485H12.4Zm-1.887,0a.518.518,0,0,0,.108.324,2.529,2.529,0,0,0,.243.324,1.267,1.267,0,0,0,.324.243.593.593,0,0,0,.351.108.746.746,0,0,0,.243-.027.564.564,0,0,0,.162-.108l.081-.162a.459.459,0,0,0,.027-.189.917.917,0,0,0-.027-.27.958.958,0,0,0-.108-.243h-1.4Zm3.505,3.883a.263.263,0,0,0,.243-.108l.162-.243a1.422,1.422,0,0,0,.081-.324,1.209,1.209,0,0,0,.027-.3,1.313,1.313,0,0,0-.027-.324c-.027-.108-.054-.216-.081-.3a1.314,1.314,0,0,0-.108-.3c-.027-.108-.081-.216-.108-.324l-.081-.324a1.658,1.658,0,0,1-.027-.377,2.671,2.671,0,0,1,.054-.485,2.087,2.087,0,0,1,.189-.431H13.292v-.485h2.454v.485h-.512a.533.533,0,0,0-.3.162.559.559,0,0,0-.162.27.615.615,0,0,0-.081.3c0,.108-.027.189-.027.27a1.658,1.658,0,0,0,.027.377l.081.324a.966.966,0,0,0,.108.3c.027.108.081.189.108.3l.081.324a1.537,1.537,0,0,1,.027.351,3.3,3.3,0,0,1-.054.512,2.332,2.332,0,0,1-.189.458,1.01,1.01,0,0,1-.351.324,1.033,1.033,0,0,1-.512.135h-.216v-.566Zm6.579-2.4a1,1,0,0,0,.135-.3,1.313,1.313,0,0,0,.027-.324,1.821,1.821,0,0,0-.054-.377.911.911,0,0,0-.162-.324.685.685,0,0,0-.27-.216.746.746,0,0,0-.351-.081.526.526,0,0,0-.216.027c-.081.027-.162.027-.216.054a1.173,1.173,0,0,0-.189.108c-.054.027-.108.108-.162.162l.027.027h.081a.635.635,0,0,1,.216.054.705.705,0,0,1,.324.324.458.458,0,0,1,0,.431,1.172,1.172,0,0,1-.108.189.484.484,0,0,1-.189.135.787.787,0,0,1-.243.054.8.8,0,0,1-.27-.054.637.637,0,0,1-.243-.162l-.162-.243a.684.684,0,0,1-.054-.324,1.057,1.057,0,0,1,.108-.485,1.194,1.194,0,0,1,.324-.4,1.578,1.578,0,0,1,.458-.27,1.408,1.408,0,0,1,.566-.108,1.251,1.251,0,0,1,.566.108,1.194,1.194,0,0,1,.4.324,1.242,1.242,0,0,1,.243.458,1.738,1.738,0,0,1,.081.539,2.689,2.689,0,0,1-.054.431,1.271,1.271,0,0,1-.162.4,1.278,1.278,0,0,1,.27.27,2.249,2.249,0,0,1,.216.324,1.559,1.559,0,0,1,.135.377,2.115,2.115,0,0,1,.054.377,1.451,1.451,0,0,1-.108.593,1.487,1.487,0,0,1-.809.809,1.629,1.629,0,0,1-.647.135,1.792,1.792,0,0,1-.566-.081,1.369,1.369,0,0,1-.485-.243,2.7,2.7,0,0,1-.782-.782c-.108-.162-.189-.324-.3-.485a3.82,3.82,0,0,1-.216-.485c-.054-.162-.108-.324-.162-.458a2.246,2.246,0,0,1-.108-.4l.4-.27h.027a8.8,8.8,0,0,0,.377,1.105,3.841,3.841,0,0,0,.512.863,2.332,2.332,0,0,0,.593.566,1.217,1.217,0,0,0,.674.189,1.259,1.259,0,0,0,.458-.081.821.821,0,0,0,.351-.243.951.951,0,0,0,.216-.351,1.082,1.082,0,0,0,.081-.4.746.746,0,0,0-.027-.243.857.857,0,0,0-.081-.243.807.807,0,0,0-.108-.216c-.054-.054-.081-.108-.135-.162a.551.551,0,0,1-.135.243.727.727,0,0,1-.216.189,1.226,1.226,0,0,1-.512.162.526.526,0,0,1-.189-.027l-.162-.081a.344.344,0,0,1-.108-.162.6.6,0,0,1,.054-.593,1.055,1.055,0,0,1,.27-.216,1.335,1.335,0,0,1,.351-.108C20.357,51.375,20.491,51.348,20.6,51.348Zm7.307.782a2.8,2.8,0,0,1-.108-.27,3.163,3.163,0,0,0-.135-.3L27.5,51.24a2.333,2.333,0,0,0-.189-.27,1.13,1.13,0,0,0-.4.108,3.214,3.214,0,0,0-.728.485l-.3.3c-.081.108-.162.189-.216.27s-.108.135-.135.189l-.377-.3a.233.233,0,0,1,.081-.162.2.2,0,0,0,.027-.135v-.135a.526.526,0,0,0-.027-.216c-.027-.081-.054-.135-.081-.216A.915.915,0,0,0,24.994,51a.362.362,0,0,0-.243-.054h-.108a.243.243,0,0,0-.135.027.206.206,0,0,0-.135.054.372.372,0,0,0-.108.081l-.3-.4a.879.879,0,0,1,.108-.351,2.249,2.249,0,0,1,.216-.324,1.545,1.545,0,0,1,.3-.3,1.719,1.719,0,0,1,.377-.216l.4-.162A2.359,2.359,0,0,1,25.8,49.3a1.738,1.738,0,0,1,.539.081,1.5,1.5,0,0,1,.458.243,4.693,4.693,0,0,1,.377.324,3.625,3.625,0,0,1,.3.377c.081.135.162.243.243.377a.911.911,0,0,1,.162.324h0V49.488h1.24v.485h-.7v4.422h-.539V52.13ZM25.83,49.784a2.1,2.1,0,0,0-.431.054.945.945,0,0,0-.377.162.843.843,0,0,0-.3.243,1.889,1.889,0,0,0-.216.27.787.787,0,0,1,.243-.054.746.746,0,0,1,.243-.027.575.575,0,0,1,.324.081.727.727,0,0,1,.216.189.843.843,0,0,1,.135.27,1.146,1.146,0,0,1,.054.3c.081-.081.189-.162.27-.243a2.058,2.058,0,0,1,.3-.216,1.812,1.812,0,0,1,.324-.162,1.744,1.744,0,0,1,.351-.108,2.865,2.865,0,0,0-.243-.3,1.056,1.056,0,0,0-.27-.216,1,1,0,0,0-.3-.135A.471.471,0,0,0,25.83,49.784Zm4.988-.4v.485h-.7v4.422h-.539V49.865h-.7V49.38h.7a1.133,1.133,0,0,1-.162-.566.888.888,0,0,1,.162-.512,1.342,1.342,0,0,1,.458-.4,2.2,2.2,0,0,1,.674-.243,4.186,4.186,0,0,1,.836-.081,3.62,3.62,0,0,1,.944.108,3.55,3.55,0,0,1,.809.243,3.313,3.313,0,0,1,.62.3,3.4,3.4,0,0,1,.351.243l-.27.458a2.626,2.626,0,0,0-.4-.27,3.356,3.356,0,0,0-.539-.27,4.918,4.918,0,0,0-.674-.189,3.818,3.818,0,0,0-.836-.081,4.474,4.474,0,0,0-.647.054,1.431,1.431,0,0,0-.512.162,1.968,1.968,0,0,0-.351.243.568.568,0,0,0-.135.351.787.787,0,0,0,.054.243,2.494,2.494,0,0,0,.135.27h.728Zm2.885.485H30.6V49.38h4.341v.485h-.7v4.557h-.324a1.952,1.952,0,0,0-.3-.512,3.214,3.214,0,0,0-.4-.485c-.162-.162-.324-.3-.485-.431a5.775,5.775,0,0,0-.512-.351,4.685,4.685,0,0,0-.512-.27,1.88,1.88,0,0,0-.458-.162v-.7c.162-.108.324-.216.512-.324s.377-.243.593-.351a6.9,6.9,0,0,1,.647-.3,3.154,3.154,0,0,1,.674-.189v-.485ZM31.654,53.64a.342.342,0,0,1,.027-.162c.027-.054.054-.081.081-.135a.589.589,0,0,1,.135-.081.5.5,0,0,1,.324,0c.054.027.081.054.135.081a.589.589,0,0,1,.081.135.5.5,0,0,1,0,.324.324.324,0,0,1-.216.216.5.5,0,0,1-.324,0,.324.324,0,0,1-.216-.216C31.681,53.748,31.654,53.694,31.654,53.64Zm2.049-.458V50.917a.7.7,0,0,0-.3.081c-.108.054-.243.081-.351.135a2.465,2.465,0,0,0-.377.189c-.135.054-.243.135-.351.189a2.841,2.841,0,0,0-.3.189,2.487,2.487,0,0,1-.216.135v.081a4.083,4.083,0,0,1,.971.485,10.97,10.97,0,0,1,.917.782Zm4.1-3.316H34.7V49.38h4.341v.485h-.7v4.557h-.324a1.952,1.952,0,0,0-.3-.512,3.213,3.213,0,0,0-.4-.485c-.162-.162-.324-.3-.485-.431a5.775,5.775,0,0,0-.512-.351,4.685,4.685,0,0,0-.512-.27,1.88,1.88,0,0,0-.458-.162v-.7c.162-.108.324-.216.512-.324s.377-.243.593-.351a6.9,6.9,0,0,1,.647-.3,3.154,3.154,0,0,1,.674-.189v-.485Zm0,3.316V50.917a.7.7,0,0,0-.3.081c-.108.054-.243.081-.351.135a2.465,2.465,0,0,0-.377.189c-.135.054-.243.135-.351.189a2.842,2.842,0,0,0-.3.189,2.487,2.487,0,0,1-.216.135v.081a4.083,4.083,0,0,1,.971.485,10.97,10.97,0,0,1,.917.782Zm1.672-2.8a.39.39,0,0,0-.054-.189.5.5,0,0,0-.27-.27.526.526,0,0,0-.216-.027H38.8v-.485h.135a.526.526,0,0,1,.189.027.634.634,0,0,1,.216.054.542.542,0,0,1,.216.108,1.125,1.125,0,0,1,.216.162V49.73a.508.508,0,0,1,.054-.216.163.163,0,0,1,.162-.081h.755v.485h-.135a.526.526,0,0,0-.216.027.676.676,0,0,0-.189.108.564.564,0,0,0-.108.162.5.5,0,0,0-.054.189v3.936H39.5V50.377Zm4.1-.512h-3.1V49.38h4.341v.485h-.7v4.557h-.324a1.952,1.952,0,0,0-.3-.512,3.214,3.214,0,0,0-.4-.485c-.162-.162-.324-.3-.485-.431a5.775,5.775,0,0,0-.512-.351,4.685,4.685,0,0,0-.512-.27,1.88,1.88,0,0,0-.458-.162v-.7c.162-.108.324-.216.512-.324s.377-.243.593-.351a6.9,6.9,0,0,1,.647-.3,3.154,3.154,0,0,1,.674-.189v-.485ZM41.549,53.64a.342.342,0,0,1,.027-.162c.027-.054.054-.081.081-.135a.59.59,0,0,1,.135-.081.5.5,0,0,1,.324,0c.054.027.081.054.135.081a.59.59,0,0,1,.081.135.5.5,0,0,1,0,.324.324.324,0,0,1-.216.216.5.5,0,0,1-.324,0,.324.324,0,0,1-.216-.216C41.576,53.748,41.549,53.694,41.549,53.64Zm2.022-.458V50.917a.7.7,0,0,0-.3.081c-.108.054-.243.081-.351.135a2.465,2.465,0,0,0-.377.189c-.135.054-.243.135-.351.189a2.841,2.841,0,0,0-.3.189,2.488,2.488,0,0,1-.216.135v.081a4.083,4.083,0,0,1,.971.485,6.134,6.134,0,0,1,.917.782Zm5.716-3.316h-3.1V49.38h6.147v.485H49.826v.512a4.163,4.163,0,0,1,.809.108,1.744,1.744,0,0,1,.674.324,1.568,1.568,0,0,1,.458.485,1.32,1.32,0,0,1,.189.674,1.306,1.306,0,0,1-.081.485.821.821,0,0,1-.243.351.951.951,0,0,1-.351.216,1.082,1.082,0,0,1-.4.081,1,1,0,0,1-.324-.054.649.649,0,0,1-.216-.162.676.676,0,0,1-.108-.189.526.526,0,0,1-.027-.189.459.459,0,0,1,.027-.189.5.5,0,0,1,.27-.27.458.458,0,0,1,.431,0c.054.027.108.081.162.108.027.054.081.108.081.162a.342.342,0,0,1,.027.162h.027a.276.276,0,0,0,.135-.162.8.8,0,0,0,.054-.27.861.861,0,0,0-.081-.377,1.112,1.112,0,0,0-.27-.351,1.8,1.8,0,0,0-1.213-.377v3.505H49.53a1.952,1.952,0,0,0-.3-.512,3.214,3.214,0,0,0-.4-.485c-.162-.162-.324-.3-.485-.431a5.774,5.774,0,0,0-.512-.351,4.686,4.686,0,0,0-.512-.27,1.88,1.88,0,0,0-.458-.162v-.7c.162-.108.324-.216.512-.324s.377-.243.593-.351a6.894,6.894,0,0,1,.647-.3,3.154,3.154,0,0,1,.674-.189v-.512Zm0,3.316V50.917a1.422,1.422,0,0,0-.324.081c-.108.054-.243.081-.351.135a2.465,2.465,0,0,0-.377.189c-.108.054-.243.135-.351.189a2.842,2.842,0,0,0-.3.189,2.487,2.487,0,0,1-.216.135v.081a4.083,4.083,0,0,1,.971.485,5.2,5.2,0,0,1,.944.782ZM54.6,51.833a1.137,1.137,0,0,0-.351-.566.765.765,0,0,0-.458-.189.718.718,0,0,0-.324.081,1.481,1.481,0,0,0-.243.189.843.843,0,0,0-.135.27,1.353,1.353,0,0,0-.054.324.746.746,0,0,0,.027.243,1.859,1.859,0,0,0,.081.216h.027a.526.526,0,0,1,.027-.189.564.564,0,0,1,.108-.162.715.715,0,0,1,.162-.135.573.573,0,0,1,.485,0,.484.484,0,0,1,.189.135.435.435,0,0,1,.108.189.634.634,0,0,1,.054.216.67.67,0,0,1-.027.216.807.807,0,0,1-.108.216.548.548,0,0,1-.243.162.783.783,0,0,1-.377.081.826.826,0,0,1-.458-.108.736.736,0,0,1-.324-.243,1.235,1.235,0,0,1-.189-.377,1.187,1.187,0,0,1-.054-.431,1.693,1.693,0,0,1,.081-.512,1.367,1.367,0,0,1,.243-.431,1.126,1.126,0,0,1,.4-.3,1.094,1.094,0,0,1,.512-.108.886.886,0,0,1,.458.108A1.215,1.215,0,0,1,54.6,51h.027A1.311,1.311,0,0,1,55,50.7a1.259,1.259,0,0,1,.458-.081,1.227,1.227,0,0,1,.539.135v-.809H52.145v-.485h5.1v.485h-.7v4.422H56V51.429a.637.637,0,0,0-.243-.216.615.615,0,0,0-.3-.081,1.147,1.147,0,0,0-.3.054.968.968,0,0,0-.27.189.372.372,0,0,1,.081.108c.027.054.054.081.054.135l-.431.216Zm3.1,1.914a.263.263,0,0,0,.243-.108L58.1,53.4a1.422,1.422,0,0,0,.081-.324,1.209,1.209,0,0,0,.027-.3,1.313,1.313,0,0,0-.027-.324c-.027-.108-.054-.216-.081-.3a1.314,1.314,0,0,0-.108-.3c-.027-.108-.081-.216-.108-.324l-.081-.324a1.658,1.658,0,0,1-.027-.377,2.672,2.672,0,0,1,.054-.485,2.087,2.087,0,0,1,.189-.431H56.971v-.485h2.454v.485h-.512a.533.533,0,0,0-.3.162.559.559,0,0,0-.162.27.615.615,0,0,0-.081.3c0,.108-.027.189-.027.27a1.658,1.658,0,0,0,.027.377l.081.324a.966.966,0,0,0,.108.3c.027.108.081.189.108.3l.081.324a1.537,1.537,0,0,1,.027.351,3.3,3.3,0,0,1-.054.512,2.332,2.332,0,0,1-.189.458,1.01,1.01,0,0,1-.351.324,1.033,1.033,0,0,1-.512.135h-.216v-.566Zm2.184-3.37a.39.39,0,0,0-.054-.189.5.5,0,0,0-.27-.27.526.526,0,0,0-.216-.027h-.135v-.485h.135a.526.526,0,0,1,.189.027.634.634,0,0,1,.216.054.542.542,0,0,1,.216.108,1.125,1.125,0,0,1,.216.162V49.73a.508.508,0,0,1,.054-.216.163.163,0,0,1,.162-.081h.755v.485h-.135a.526.526,0,0,0-.216.027.676.676,0,0,0-.189.108.564.564,0,0,0-.108.162.5.5,0,0,0-.054.189v3.936H59.91V50.377Zm4.287-1h1.24v.485h-.7v4.422H64.17V51.645c-.081-.27-.189-.512-.27-.755a3.313,3.313,0,0,0-.3-.62,1.815,1.815,0,0,0-.377-.4.736.736,0,0,0-.485-.135.861.861,0,0,0-.377.081.765.765,0,0,0-.27.243.911.911,0,0,0-.162.324,1.821,1.821,0,0,0-.054.377.969.969,0,0,0,.054.3.276.276,0,0,0,.135.162h.027a.342.342,0,0,1,.027-.162l.081-.162a.344.344,0,0,1,.162-.108.458.458,0,0,1,.431,0c.054.027.135.054.162.108a.564.564,0,0,1,.108.162.459.459,0,0,1,.027.189.526.526,0,0,1-.027.189.435.435,0,0,1-.108.189,1.5,1.5,0,0,1-.216.162.637.637,0,0,1-.351.054,1.082,1.082,0,0,1-.4-.081.951.951,0,0,1-.351-.216,1.026,1.026,0,0,1-.243-.351,1.459,1.459,0,0,1-.081-.512,1.5,1.5,0,0,1,.135-.62,1.41,1.41,0,0,1,.324-.458,1.145,1.145,0,0,1,.458-.27,1.741,1.741,0,0,1,.512-.108.923.923,0,0,1,.485.108,1.914,1.914,0,0,1,.377.27,2.036,2.036,0,0,1,.3.377,2.149,2.149,0,0,1,.216.431h.027V49.38Zm4.53,3.936a1.354,1.354,0,0,1-.324-.054.587.587,0,0,1-.216-.135.819.819,0,0,1-.135-.189.834.834,0,0,1-.054-.216.787.787,0,0,1,.054-.243.419.419,0,0,1,.162-.216,2.372,2.372,0,0,1,.27-.162.74.74,0,0,1,.351-.054h.162a.383.383,0,0,1,.162.054,1.972,1.972,0,0,0-.081-.593,1.6,1.6,0,0,0-.189-.431.962.962,0,0,0-.27-.3,2.249,2.249,0,0,0-.324-.216,1.65,1.65,0,0,0-.324-.135c-.108-.027-.189-.054-.3-.081v-.485h-.863V49.38h5.123v.485h-.7v4.557h-.324a1.367,1.367,0,0,0-.243-.431c-.108-.135-.216-.3-.324-.431a4.984,4.984,0,0,0-.377-.377l-.4-.324a.929.929,0,0,1-.324.324A1.115,1.115,0,0,1,68.7,53.316Zm1.968-.135V49.865H68.134a2.366,2.366,0,0,1,.728.431,2.452,2.452,0,0,1,.485.566,1.966,1.966,0,0,1,.243.7,3.66,3.66,0,0,1,.081.782,3.586,3.586,0,0,1,.512.377c.162.135.324.3.485.458Zm1.672.27.377.3v.027a.718.718,0,0,0-.081.324.384.384,0,0,0,.162.324.714.714,0,0,0,.458.135,2.082,2.082,0,0,0,.4-.054c.135-.027.3-.081.431-.108s.3-.081.431-.108a1.856,1.856,0,0,1,.351-.054.342.342,0,0,1,.162.027.5.5,0,0,1,.189.054c.054.027.135.054.189.081a.715.715,0,0,1,.162.135H75.6V51.968a4.239,4.239,0,0,0-.62.108,2.262,2.262,0,0,0-.512.189.974.974,0,0,0-.351.3.662.662,0,0,0-.135.4,1.094,1.094,0,0,0,.135.458h.027a.243.243,0,0,1,.027-.135.589.589,0,0,1,.081-.135.269.269,0,0,1,.135-.108.5.5,0,0,1,.189-.054.4.4,0,0,1,.189.027.564.564,0,0,1,.162.108.473.473,0,0,1,.108.135.5.5,0,0,1,0,.324.564.564,0,0,1-.108.162.484.484,0,0,1-.189.135.969.969,0,0,1-.3.054.861.861,0,0,1-.377-.081.843.843,0,0,1-.3-.243,2.011,2.011,0,0,1-.189-.324.918.918,0,0,1-.054-.377,1.058,1.058,0,0,1,.108-.485,3.856,3.856,0,0,1,.3-.4,1.919,1.919,0,0,1,.458-.3,1.75,1.75,0,0,1,.566-.189,1.637,1.637,0,0,1-.27-.189,1.889,1.889,0,0,0-.27-.216,2.333,2.333,0,0,0-.27-.189.455.455,0,0,0-.27-.081l-.027.027.081.162a.459.459,0,0,1,.027.189.508.508,0,0,1-.054.216.483.483,0,0,1-.135.189.819.819,0,0,1-.189.135.573.573,0,0,1-.485,0,.484.484,0,0,1-.189-.135.587.587,0,0,1-.135-.216.8.8,0,0,1-.054-.27,1.353,1.353,0,0,1,.054-.324.968.968,0,0,1,.189-.27.8.8,0,0,1,.3-.189.861.861,0,0,1,.377-.081,1.591,1.591,0,0,1,.377.054,2.032,2.032,0,0,1,.351.162,2.843,2.843,0,0,1,.3.189,1.637,1.637,0,0,0,.27.189,1.5,1.5,0,0,1,.216.162.228.228,0,0,0,.162.054.1.1,0,0,0,.081-.027c.027-.027.054-.027.081-.081a.2.2,0,0,0,.054-.108.342.342,0,0,0,.027-.162.746.746,0,0,0-.027-.243.958.958,0,0,0-.108-.243,1.5,1.5,0,0,0-.135-.216.458.458,0,0,0-.162-.162H71.639V49.38h5.123v.485h-.971a1.548,1.548,0,0,0,.108.189.7.7,0,0,1,.081.216.787.787,0,0,1,.054.243.746.746,0,0,1,.027.243,1.118,1.118,0,0,1-.081.431.734.734,0,0,1-.216.27h.162a.243.243,0,0,1,.135.027v3.936H75.71c-.027-.081-.081-.162-.108-.243a1.483,1.483,0,0,0-.189-.243.559.559,0,0,0-.27-.162,1.422,1.422,0,0,0-.324-.081,2.115,2.115,0,0,0-.377.054c-.135.027-.27.081-.431.108a2.283,2.283,0,0,1-.458.108,2.689,2.689,0,0,1-.431.054,1.027,1.027,0,0,1-.431-.081,1.355,1.355,0,0,1-.324-.216,1.113,1.113,0,0,1-.189-.3.8.8,0,0,1-.054-.351.969.969,0,0,1,.054-.3,1.811,1.811,0,0,1,.162-.324Zm7.469-4.071h1.24v.485h-.7v4.422h-.539V51.645c-.081-.27-.189-.512-.27-.755a3.313,3.313,0,0,0-.3-.62,1.815,1.815,0,0,0-.377-.4.736.736,0,0,0-.485-.135.861.861,0,0,0-.377.081.765.765,0,0,0-.27.243.911.911,0,0,0-.162.324,1.821,1.821,0,0,0-.054.377.969.969,0,0,0,.054.3.276.276,0,0,0,.135.162h.027a.342.342,0,0,1,.027-.162l.081-.162A.344.344,0,0,1,78,50.782a.458.458,0,0,1,.431,0c.054.027.135.054.162.108a.564.564,0,0,1,.108.162.459.459,0,0,1,.027.189.527.527,0,0,1-.027.189.435.435,0,0,1-.108.189,1.5,1.5,0,0,1-.216.162.637.637,0,0,1-.351.054,1.082,1.082,0,0,1-.4-.081.952.952,0,0,1-.351-.216,1.026,1.026,0,0,1-.243-.351,1.459,1.459,0,0,1-.081-.512,1.5,1.5,0,0,1,.135-.62,1.41,1.41,0,0,1,.324-.458,1.145,1.145,0,0,1,.458-.27,1.741,1.741,0,0,1,.512-.108.923.923,0,0,1,.485.108,1.914,1.914,0,0,1,.377.27,2.037,2.037,0,0,1,.3.377,2.149,2.149,0,0,1,.216.431h.027V49.38Zm1.7,1a.39.39,0,0,0-.054-.189.5.5,0,0,0-.27-.27.526.526,0,0,0-.216-.027h-.135v-.485h.135a.526.526,0,0,1,.189.027.634.634,0,0,1,.216.054.542.542,0,0,1,.216.108,1.125,1.125,0,0,1,.216.162V49.73a.508.508,0,0,1,.054-.216.163.163,0,0,1,.162-.081h.755v.485h-.135a.526.526,0,0,0-.216.027.676.676,0,0,0-.189.108.564.564,0,0,0-.108.162.5.5,0,0,0-.054.189v3.936h-.539V50.377Zm3.478,1.456a1.137,1.137,0,0,0-.351-.566.765.765,0,0,0-.458-.189.718.718,0,0,0-.324.081,1.481,1.481,0,0,0-.243.189.843.843,0,0,0-.135.27,1.353,1.353,0,0,0-.054.324.746.746,0,0,0,.027.243,1.857,1.857,0,0,0,.081.216h.027a.526.526,0,0,1,.027-.189.564.564,0,0,1,.108-.162.715.715,0,0,1,.162-.135.573.573,0,0,1,.485,0,.484.484,0,0,1,.189.135.435.435,0,0,1,.108.189.635.635,0,0,1,.054.216.67.67,0,0,1-.027.216.807.807,0,0,1-.108.216.548.548,0,0,1-.243.162.783.783,0,0,1-.377.081.826.826,0,0,1-.458-.108.736.736,0,0,1-.324-.243,1.235,1.235,0,0,1-.189-.377,1.117,1.117,0,0,1-.054-.431,1.693,1.693,0,0,1,.081-.512,1.367,1.367,0,0,1,.243-.431,1.126,1.126,0,0,1,.4-.3,1.094,1.094,0,0,1,.512-.108.886.886,0,0,1,.458.108,1.215,1.215,0,0,1,.377.27h.027a1.311,1.311,0,0,1,.377-.3,1.259,1.259,0,0,1,.458-.081,1.227,1.227,0,0,1,.539.135v-.809H82.531v-.485h5.1v.485h-.7v4.422h-.539V51.429a.637.637,0,0,0-.243-.216.615.615,0,0,0-.3-.081,1.147,1.147,0,0,0-.3.054.968.968,0,0,0-.27.189.372.372,0,0,1,.081.108c.027.054.054.081.054.135l-.431.216Zm5.932,2.588a1.952,1.952,0,0,0-.3-.512,3.082,3.082,0,0,0-.4-.458,5.923,5.923,0,0,0-.485-.377c-.162-.108-.351-.216-.512-.324-.162-.081-.351-.162-.512-.243a4.159,4.159,0,0,0-.458-.135v-.7c.162-.108.324-.216.512-.324s.4-.216.62-.324a1.857,1.857,0,0,0-.351-.3,2.694,2.694,0,0,0-.377-.216,2.113,2.113,0,0,0-.377-.135c-.108-.027-.216-.054-.3-.081v-.431h-.593V49.38h4.557v.485h-.7v4.557Zm-.728-3.1a3.271,3.271,0,0,0-.377.135c-.135.054-.27.135-.4.189s-.27.135-.377.189a.941.941,0,0,0-.243.162v.081a3.6,3.6,0,0,1,.485.189,2.041,2.041,0,0,1,.485.243,2.671,2.671,0,0,1,.458.3,2.027,2.027,0,0,1,.431.4h.027V49.865H88.436a2.622,2.622,0,0,1,.512.216,3.433,3.433,0,0,1,.512.351,3.261,3.261,0,0,1,.431.431A1.218,1.218,0,0,1,90.189,51.321Zm-1.348,2.4a.342.342,0,0,1,.027-.162c.027-.054.054-.081.081-.135a.59.59,0,0,1,.135-.081.5.5,0,0,1,.324,0c.054.027.081.054.135.081a.589.589,0,0,1,.081.135.5.5,0,0,1,0,.324.324.324,0,0,1-.216.216.5.5,0,0,1-.324,0c-.054-.027-.081-.054-.135-.081a.589.589,0,0,1-.081-.135C88.841,53.856,88.841,53.8,88.841,53.721Z" transform="translate(-1.941 -13.493)"/>
      </g>
    </g>
  </g>
</svg>
