<svg xmlns="http://www.w3.org/2000/svg" xmlns:xlink="http://www.w3.org/1999/xlink" width="90" height="45" viewBox="0 0 90 45">
  <defs>
    <clipPath id="clip-path">
      <rect id="Rectangle_750" data-name="Rectangle 750" width="90" height="45" transform="translate(116 7107)" fill="#841890"/>
    </clipPath>
  </defs>
  <g id="Mask_Group_43" data-name="Mask Group 43" transform="translate(-116 -7107)" clip-path="url(#clip-path)">
    <g id="undp" transform="translate(116 7107.284)">
      <g id="Group_1354" data-name="Group 1354" transform="translate(45.595)">
        <rect id="Rectangle_745" data-name="Rectangle 745" width="21.543" height="21.543" transform="translate(0.026)" fill="#1b5eac"/>
        <path id="Path_1743" data-name="Path 1743" d="M45.609,17.862v8.457c0,4.5,2.224,6.155,5.172,6.155,3.1,0,5.457-1.784,5.457-6.207V17.862H54.351V26.4c0,3.155-1.4,4.552-3.517,4.552-1.914,0-3.362-1.371-3.362-4.552V17.862Z" transform="translate(-40.152 -14.345)" fill="#fff"/>
        <rect id="Rectangle_746" data-name="Rectangle 746" width="21.543" height="21.543" transform="translate(22.862)" fill="#1b5eac"/>
        <path id="Path_1744" data-name="Path 1744" d="M67.6,32.29V26.135c0-2.379-.026-4.112-.129-5.922l.078-.026A43.092,43.092,0,0,0,70.21,25l4.552,7.319h1.888V17.911H74.917v6.026c0,2.224.052,3.983.233,5.9l-.1.026a41.071,41.071,0,0,0-2.56-4.681l-4.578-7.293H65.839V32.264l1.759.026Z" transform="translate(-37.624 -14.342)" fill="#fff"/>
        <rect id="Rectangle_747" data-name="Rectangle 747" width="21.543" height="21.543" transform="translate(22.862 22.862)" fill="#1b5eac"/>
        <path id="Path_1745" data-name="Path 1745" d="M74.135,42.483c0-1.914-1.345-2.845-3.388-2.845a7.994,7.994,0,0,0-1.733.155v5.586a6.38,6.38,0,0,0,1.552.155c2.224.026,3.569-1.112,3.569-3.052M76,42.3a4.179,4.179,0,0,1-1.138,3.078,6.013,6.013,0,0,1-4.4,1.578,6.479,6.479,0,0,1-1.5-.129v5.793H67.126v-14.2a18.426,18.426,0,0,1,3.543-.284,5.872,5.872,0,0,1,4.034,1.19A3.593,3.593,0,0,1,76,42.3Z" transform="translate(-37.463 -11.81)" fill="#fff"/>
        <rect id="Rectangle_748" data-name="Rectangle 748" width="21.543" height="21.543" transform="translate(0 22.888)" fill="#1b5eac"/>
        <path id="Path_1746" data-name="Path 1746" d="M55.4,45.1c.026-3.44-1.914-5.534-5.845-5.534a9,9,0,0,0-2.172.207V51.152a13.381,13.381,0,0,0,1.888.078c3.957,0,6.129-2.25,6.129-6.129m1.94-.052a7.577,7.577,0,0,1-2.069,5.586C53.9,51.98,51.7,52.7,48.882,52.7a25.457,25.457,0,0,1-3.388-.181V38.376a26.177,26.177,0,0,1,3.983-.284c2.664,0,4.552.595,5.845,1.759A6.726,6.726,0,0,1,57.339,45.049Z" transform="translate(-40.167 -11.816)" fill="#fff"/>
      </g>
      <g id="Group_1355" data-name="Group 1355">
        <g id="Group_1718" data-name="Group 1718">
          <rect id="Rectangle_749" data-name="Rectangle 749" width="44.431" height="44.431" fill="#1b5eac"/>
        </g>
        <path id="Path_1747" data-name="Path 1747" d="M30.365,43.555c-1.009.259-2.121.362-3.078.7,1.655-1.448,1.6-3.647,2.69-5.379.362-.491.672-.983,1.06-1.448-.7,1.371-.388,3.129-1.19,4.474a5.734,5.734,0,0,1-1.19,1.448c.155,0,.284-.155.414-.233,1.267-1.267,2.948-1.629,4.319-2.638a4.023,4.023,0,0,0,1.293-1.655c-.233,2.147-2.353,4.086-4.319,4.733" transform="translate(3.152 -11.899)" fill="#fff"/>
        <path id="Path_1748" data-name="Path 1748" d="M34.46,35.934c-.621.879-1.371,1.707-1.94,2.612a4.714,4.714,0,0,0-.129-2.25,18.683,18.683,0,0,1-1.034-4.5l.026-.621c.362,1.629,1.966,2.741,1.862,4.552a4.4,4.4,0,0,1-.181,1.19l.026.026.078-.078a18.316,18.316,0,0,1,.7-2.664c.517-1.19,1.19-2.431.905-3.879a6.762,6.762,0,0,1-.31,5.612" transform="translate(3.661 -12.787)" fill="#fff"/>
        <path id="Path_1749" data-name="Path 1749" d="M33.6,27.184a5.577,5.577,0,0,1,.517,5.328,9.018,9.018,0,0,0-.595,2.172c-.052-.129-.078-.31-.129-.466-.414-1.6-1.94-2.716-2.56-4.241a7.7,7.7,0,0,1-.466-1.552c.672,1.216,2.3,1.862,2.741,3.207a5.237,5.237,0,0,1,.284,1.138.056.056,0,0,0,.052-.052A14.385,14.385,0,0,1,33.5,28.5a3.437,3.437,0,0,0-.491-2.043,5.2,5.2,0,0,1,.595.724" transform="translate(3.537 -13.27)" fill="#fff"/>
        <path id="Path_1750" data-name="Path 1750" d="M32.989,27.135c.259,1.241-.129,2.457.129,3.7h0c-.7-1.319-2.121-1.966-3.1-3.026a4.2,4.2,0,0,1-.957-2.224c.569,1.371,2.095,1.655,2.974,2.819a5.144,5.144,0,0,1,.595.931l.026-.026a22.01,22.01,0,0,1-1.034-3.44,2.733,2.733,0,0,0-1.009-1.293,3.5,3.5,0,0,1,2.379,2.56" transform="translate(3.374 -13.506)" fill="#fff"/>
        <path id="Path_1751" data-name="Path 1751" d="M30.121,24.46a5.61,5.61,0,0,1,1.526,2.819l.155.336A12.588,12.588,0,0,1,28.595,24.2l-1.009-.983a8.876,8.876,0,0,1,2.534,1.241" transform="translate(3.19 -13.675)" fill="#fff"/>
        <path id="Path_1752" data-name="Path 1752" d="M12.595,23.356a14.439,14.439,0,0,0-2.121,2.612,22.049,22.049,0,0,1-1.991,1.81A11.446,11.446,0,0,1,9.336,25.5a5.87,5.87,0,0,1,3.259-2.147" transform="translate(0.802 -13.658)" fill="#fff"/>
        <path id="Path_1753" data-name="Path 1753" d="M8,25.842a3.127,3.127,0,0,1,1.578-1.06c-1.19.8-1.112,2.25-1.474,3.466-.129.44-.31.853-.414,1.293l.026.026a4.313,4.313,0,0,1,.957-1.422c.828-.75,2.069-1.241,2.483-2.379-.026,1.578-1.345,2.819-2.612,3.7A4.969,4.969,0,0,0,7.248,31.04c-.026-.388.052-.8.026-1.216-.129-1.4-.259-2.948.724-3.983" transform="translate(0.64 -13.48)" fill="#fff"/>
        <path id="Path_1754" data-name="Path 1754" d="M5.794,30.33a5.381,5.381,0,0,1,1.371-3.569c.026,0,.052-.026.078-.026-.905,1.371-.155,3.078-.207,4.655l-.129,1.6c.026,0,.026.052.052.052a4.015,4.015,0,0,0,.1-.543c.233-1.267,1.319-2.2,2.3-3.078a2.566,2.566,0,0,0,.491-.724,6.283,6.283,0,0,1-.543,1.888c-.75,1.474-2.147,2.69-2.431,4.4C6.8,33.279,5.69,32.037,5.794,30.33" transform="translate(0.465 -13.236)" fill="#fff"/>
        <path id="Path_1755" data-name="Path 1755" d="M5.205,31.845a7.374,7.374,0,0,1,.362-1.293c-.362,1.836.879,3.181,1.293,4.784.181.595.233,1.241.466,1.81.026,0,.052,0,.052-.026-.621-1.707.259-3.284,1.164-4.6a3.645,3.645,0,0,0,.44-1.19,8.988,8.988,0,0,1-.233,2.457c-.233,1.034-.543,1.991-.8,2.974a4.574,4.574,0,0,0-.052,1.966l-.1-.078c-.647-1.19-1.94-2.121-2.3-3.44a7.368,7.368,0,0,1-.284-3.362" transform="translate(0.381 -12.759)" fill="#fff"/>
        <path id="Path_1756" data-name="Path 1756" d="M5.129,34.931c.155,1.966,2.25,3,3.233,4.6a6.881,6.881,0,0,0,.724.983,6.547,6.547,0,0,0-.31-.595,4.35,4.35,0,0,1-.388-2.3,10.584,10.584,0,0,0,.336-3c.853,1.862.595,4.164,1.086,6.181a10.608,10.608,0,0,0,.543,1.241c-1.759-1.19-4.164-2.353-4.966-4.526a6.592,6.592,0,0,1-.259-2.586" transform="translate(0.38 -12.25)" fill="#fff"/>
        <path id="Path_1757" data-name="Path 1757" d="M6.069,39.057c.983,2.224,3.466,2.405,5.095,3.776a4.909,4.909,0,0,0,.957.672l.026-.026a6.012,6.012,0,0,1-1.086-1.19c-.957-1.345-.647-3.233-1.345-4.681a10.541,10.541,0,0,1,1.655,2.509c.595,1.448.8,3.1,2.172,4.19-1.474-.491-3.207-.336-4.5-1.241a6.358,6.358,0,0,1-2.974-4.009" transform="translate(0.5 -11.876)" fill="#fff"/>
        <path id="Path_1758" data-name="Path 1758" d="M8.322,42.825c1.578,1.784,4.138,1.19,6.259,1.655a2.5,2.5,0,0,0,.879.129c-.233-.181-.595-.155-.853-.284-1.655-.595-1.888-2.353-2.793-3.543a22.6,22.6,0,0,1,3.155,2.767,5.486,5.486,0,0,0,2.612,1.19c-.233.078-.543.052-.776.129-1.707.414-3.647,1.138-5.457.491a5.718,5.718,0,0,1-3.026-2.534" transform="translate(0.782 -11.48)" fill="#fff"/>
        <path id="Path_1759" data-name="Path 1759" d="M29.425,46.583A5.294,5.294,0,0,1,24.408,45.5c-.569-.362-1.06-.879-1.784-.828a2.15,2.15,0,0,0-.724.078,14.007,14.007,0,0,1,3.75,2.612,5.427,5.427,0,0,1-.7.621,13.489,13.489,0,0,0-3.7-3,2.707,2.707,0,0,0-.75.31,12.132,12.132,0,0,0-3.052,2.716l-.7-.595a12.419,12.419,0,0,1,3.776-2.664c-1.345-.414-2.224.7-3.259,1.267a4.937,4.937,0,0,1-4.371.672A4.745,4.745,0,0,1,10.8,45.264a4.6,4.6,0,0,0,4.112.336c1.733-.75,3.543-1.707,5.612-1.241.31,0,.647.336.957.052a6.712,6.712,0,0,1,4.655.595l1.371.543a4.614,4.614,0,0,0,4.034-.44,5.01,5.01,0,0,1-2.121,1.474" transform="translate(1.092 -11.049)" fill="#fff"/>
        <path id="Path_1760" data-name="Path 1760" d="M29.756,45.2c-1.991.75-4.009-.181-5.922-.491l-.362-.052h0a5.624,5.624,0,0,0,2.534-1.138,27.73,27.73,0,0,1,3.207-2.9c-.879,1.138-.983,2.741-2.431,3.491-.362.233-.8.259-1.19.466a14.931,14.931,0,0,0,1.552-.233c1.966-.31,4.19,0,5.56-1.655A5.618,5.618,0,0,1,29.756,45.2" transform="translate(2.675 -11.5)" fill="#fff"/>
        <path id="Path_1761" data-name="Path 1761" d="M32.537,40.356c-.776.517-1.6,1.009-2.353,1.578v-.078c1.164-1.94.595-4.578,1.293-6.7l.259-.7c-.155,1.319.414,2.457.388,3.776a4.316,4.316,0,0,1-.7,2.147H31.5c.569-.724,1.009-1.552,1.655-2.25,1.034-1.009,2.095-2.017,2.2-3.388a5.8,5.8,0,0,1-2.819,5.612" transform="translate(3.514 -12.27)" fill="#fff"/>
        <path id="Path_1762" data-name="Path 1762" d="M32.549,34.684a11.564,11.564,0,0,1-2.974,7.241l-.052.1A10.417,10.417,0,0,0,28.2,40.736a4.8,4.8,0,0,0,.7-.75,9.527,9.527,0,0,0,1.888-5.25l-.052-.181.1.078h1.681l.1-.052ZM21.687,45.52l-.129.078a11.192,11.192,0,0,0,0-1.862,2.811,2.811,0,0,0,.931,0l.905-.181c.44.1.75.8,1.267.362.181-.207.466-.207.595-.466.284-.1.362-.388.569-.595.207-.569.828-.647,1.19-1.034.259-.233.647-.466.8-.776l.026.155,1.241,1.19A11.415,11.415,0,0,1,21.687,45.52Zm-.026-3.776c.233.1.595-.1.7.155-.078.155-.181.259-.129.414.1.233.233.517.491.543a.464.464,0,0,0,.259.155,8.57,8.57,0,0,0-1.422.207,14.014,14.014,0,0,0,0-1.474l-.1-.129C21.584,41.615,21.609,41.693,21.661,41.744Zm-.44-3.026a.493.493,0,0,1-.336-.052c-.052,0-.026-.078-.052-.1.181,0,.233-.207.44-.181.1-.1.129-.233.259-.31-.052-.155.155-.052.181-.155.052-.052.129-.1.207-.052.129.181.362.1.491.284.052.026.078-.052.078-.078v-.078c.207-.026.284.233.491.078.052-.052.026-.129,0-.181a.056.056,0,0,1-.052-.052c.155-.078.233.207.388.129.155-.129.233-.233.414-.233l.052.052c.026.336-.259.569-.543.724-.181.078-.491.052-.466.31-.207.181-.362-.1-.621-.026-.129-.052,0-.233-.181-.233C21.713,38.667,21.428,38.46,21.221,38.718ZM19.8,45.443a11.8,11.8,0,0,1-6.31-2.948L14.7,41.279l.026-.078a9.29,9.29,0,0,0,6.026,2.612l.181-.052-.052.1v1.6l.1.155A6.307,6.307,0,0,0,19.8,45.443ZM11.471,39.83a12.3,12.3,0,0,1-1.448-5.2h1.655l.181-.052a1.366,1.366,0,0,0-.026.336v-.026c-.052.026.026.052.026.1a9.532,9.532,0,0,0,.284,1.784l.078.129a1.572,1.572,0,0,1-.259-.362.654.654,0,0,0-.388.155c.078.181-.1.129-.181.181a.312.312,0,0,0-.129-.129.315.315,0,0,0-.31.155c.026.1-.078.129-.129.207-.026.259-.129.621.078.828a.685.685,0,0,0,.233.491.2.2,0,0,0,.129-.052c.181.129.233.414.491.336.078-.026.052-.1.078-.181.129.129.181.362.414.336.052.052.1.181.207.181.233-.078.181.284.336.388s.233.284.414.207l.078-.1c.078.052,0,.181.078.233a.7.7,0,0,0,.491.362,3.8,3.8,0,0,0,.543.569l-.155.052-1.19,1.19A11.894,11.894,0,0,1,11.471,39.83ZM10.1,32.925a11.428,11.428,0,0,1,3.052-6.466l.052.181,1.19,1.19a5.135,5.135,0,0,0-.776.905A9.5,9.5,0,0,0,11.859,33.8l.052.233a10.883,10.883,0,0,0-1.836,0A5.2,5.2,0,0,1,10.1,32.925Zm4.4-7.681a11.71,11.71,0,0,1,6.388-2.25l-.078.155.026,1.422.052.155a9.409,9.409,0,0,0-6.052,2.56l-.026.078a9.784,9.784,0,0,0-1.293-1.241h-.052C13.825,25.839,14.135,25.477,14.5,25.244Zm6.414,4.19a2.49,2.49,0,0,0-.879.1,6.015,6.015,0,0,0-1.81.931.258.258,0,0,1-.1.129c-.414-.362-.8-.853-1.241-1.19a6.859,6.859,0,0,1,3.957-1.655l.1-.052A5.552,5.552,0,0,0,20.911,29.434Zm-.466,1.914c-.026-.078.078-.181-.026-.233-.259.129-.181.414-.336.621-.026.155-.233.078-.31.181a.218.218,0,0,0-.31-.052c-.155,0-.181-.284-.31-.155-.052.052-.026.155-.129.129-.026-.052-.078-.052-.1-.078,0-.1.155-.078.1-.181-.1-.207-.336-.181-.491-.284h-.155a4.152,4.152,0,0,1,2.534-1.19,3.608,3.608,0,0,0,.1,1.293C20.834,31.193,20.627,31.425,20.446,31.348Zm-1.655,4.81a.75.75,0,0,0,.233-.388l.207.1c-.181,0-.284.207-.44.284Zm1.888,1.784c-.078.155-.026.336-.052.491a4.7,4.7,0,0,1-2.121-.983,9.625,9.625,0,0,0,1.112-1.19c.026.207.259.259.414.362a1.414,1.414,0,0,0,1.06.233l-.078.078c.1.1-.078.207.052.284.026.078-.078.078-.078.129.052.1-.026.284.155.336.052.052,0,.155-.078.155C20.911,37.813,20.756,37.813,20.678,37.943Zm-3.647-6.388a1.183,1.183,0,0,0-.388.414c-.155.1-.31.078-.44.233,0,.078.078.155,0,.207-.155.129-.414-.026-.491.233-.026.233-.284.336-.259.595-.155.1-.129.259-.1.414.078.1-.026.259.1.336a1.357,1.357,0,0,0-.724.026,4.8,4.8,0,0,0,.155-.879,7.113,7.113,0,0,1,1.6-3.284c.414.388.853.879,1.293,1.216C17.394,31.063,17.394,31.555,17.032,31.555Zm-.8,7.009-.052-.362c-.336-.284-.233-.828-.284-1.19-.233-.207-.052-.491-.233-.7,0-.336-.543-.466-.362-.828-.078-.1-.155-.233-.078-.336.1-.129.336,0,.414-.181l.052-.31c.129-.078.284.1.362-.078.129-.284-.44-.672.052-.8.181-.026.362-.052.44.155a1.281,1.281,0,0,1,0,.7c.155.052.026.207.026.284-.1.052-.181.155-.284.1-.052-.078-.129-.233-.233-.207-.1.129.026.233.026.388-.026.078,0,.181-.052.233a.277.277,0,0,0-.155-.052c-.1.052-.026.181,0,.233.1.078.181.181.31.181l.052-.078c-.026-.207.078-.336.078-.517l.181.1a6.263,6.263,0,0,0,.905,2.043l.233.233A17.255,17.255,0,0,0,16.1,39.132h0c0-.026-.026-.129-.1-.078C15.92,38.744,16.308,38.822,16.23,38.563Zm3.776,2.095.284.129a7.379,7.379,0,0,1-3.026-1.345c-.155-.1-.233-.284-.44-.284a10.335,10.335,0,0,0,1.19-1.19c.155.284.491.44.724.647.44.207.905.595,1.448.491a1,1,0,0,0-.44.284c-.078.181-.052.388-.259.466C19.489,40.115,19.773,40.425,20.006,40.658Zm-1.759-4.629a.1.1,0,0,0,.155.078c.078-.1-.155-.233,0-.284.1.1.052.284.1.414a.264.264,0,0,1,.052.233,2.613,2.613,0,0,0-.491.595c-.1-.259-.336-.491-.44-.75-.181-.31-.259-.672-.414-.957.155.181.517-.026.517.31.026.026.052,0,.1,0,.052-.052.052-.052.129-.026.026.052.181.1.052.155C17.989,35.874,18.118,36,18.247,36.029Zm2.638-8.922a2.841,2.841,0,0,0-.931.078,6.915,6.915,0,0,0-3.543,1.784l-.052-.129a9.626,9.626,0,0,0-1.19-1.112c.362-.233.7-.569,1.086-.8a9.079,9.079,0,0,1,4.629-1.552A9.693,9.693,0,0,0,20.885,27.106Zm-6.724,6.879-.155-.052-1.629.026a9.567,9.567,0,0,1,1.681-4.914l.647-.8v-.129a11.252,11.252,0,0,0,1.241,1.241A7,7,0,0,0,14.058,33.8C14.109,33.882,14.109,33.96,14.161,33.986Zm-1.19,2.741c-.181.026-.129.207-.181.284a6.714,6.714,0,0,0-.233-1.216l-.129-1.086-.078-.1c.517.078,1.112.026,1.655.052l.129-.052a1.088,1.088,0,0,0,.129.853c-.078-.078-.181-.259-.31-.259-.284.026-.31.414-.647.414a1.247,1.247,0,0,0-.336.776C13.075,36.494,12.894,36.624,12.971,36.727Zm1.784-2.017-.078-.155a.63.63,0,0,0,.569.052c-.284.1-.181.44-.284.672-.026.1.155.155.129.233-.155.078-.181.233-.233.336A4.243,4.243,0,0,0,14.756,34.71Zm6.207,8.534-.181-.129a9.532,9.532,0,0,1-5.741-2.457c.259-.026.362.31.672.233.31-.026.569-.284.905-.233.181,0,.362,0,.466-.181.052-.181-.155-.259-.181-.414a6.81,6.81,0,0,0,3.828,1.422l.155-.052v1.578Zm.259-10.991.1.052c-.129,0-.259-.078-.362.026-.078.052-.026.155,0,.233.233.078.259.44.543.284.129.026.259.052.31.181.181.078.207.362.414.284,0,.129-.052.31.1.388-.026.1-.181.155-.181.259a.159.159,0,0,0-.026.155c.233.026.207.259.31.414a.354.354,0,0,0,.181.44,1.967,1.967,0,0,1-.207.543c-.233.129-.621-.181-.7.233-.129.155-.026.466-.259.466a1.989,1.989,0,0,1-1.293-.336c.233-.129.672.052.724-.31a.168.168,0,0,0,.052-.233,1.544,1.544,0,0,0,.233-.388c-.1-.1-.052-.155-.026-.233-.233-.233-.569-.129-.879-.129-.207.1,0,.31-.129.44-.233.026-.233.259-.414.388a.35.35,0,0,1-.181-.259h.026a.076.076,0,0,0,.052.1c.233.026.155-.233.233-.336.026-.155.362-.336.1-.44-.026-.052.026-.155-.052-.181-.078.026-.233.026-.233.181a.217.217,0,0,1-.1.284h-.052a.126.126,0,0,0-.078-.155c-.155,0-.233.1-.388.078a2.348,2.348,0,0,1-.595.078c-.026-.129.155-.078.207-.181-.026-.181.1-.284.181-.414.052-.052.155-.026.207,0,.052.052.1.1.181.078l.052-.1c.181.1.078.621.414.388a3.031,3.031,0,0,1,.1-.7c-.078-.207.129-.259.181-.388.181.026.181-.207.233-.284a1.2,1.2,0,0,0,.75-.44c-.078-.155-.026-.362-.155-.491C20.937,32.2,21.118,32.149,21.221,32.253Zm1.009-6.828a9.68,9.68,0,0,1,2.871.828c.155.207.388.31.44.569-.155.362.491.336.207.7-.026.129.078.181.129.259.026.1-.026.233.1.31.233.052.284-.233.517-.181a1.039,1.039,0,0,1,.336.828c.026.207.207.31.362.388.336-.1.207.284.414.388.259.026.414.388.7.336.259.207.414.491.672.7a.142.142,0,0,0,.078.129c.155.026.233-.078.336-.078a7.6,7.6,0,0,1,.75,3.078l.052.129c-.569,0-1.164,0-1.733.052a1.923,1.923,0,0,0-.181-.957,1.026,1.026,0,0,0,.1-.621c-.026-.1-.129,0-.155,0a1.34,1.34,0,0,0-.31.672.874.874,0,0,0-.1.828l.078.078h-.672c.181-.1-.155-.284.026-.466l.284-.052c.1-.233.336-.362.31-.647A.631.631,0,0,0,28,32.1c-.155-.31.233-.672-.052-.957a.175.175,0,0,0-.155-.233c-.1-.026-.207,0-.207-.129.052-.078.207-.181.155-.284-.078-.1-.181,0-.259-.026-.026-.155.233-.284,0-.414-.181-.026-.233.181-.414.1-.078-.052-.129-.181-.052-.233l-.336-.44c-.026-.052-.155.026-.155-.052.026-.336-.388-.543-.414-.879-.129-.129-.026-.336-.207-.44-.1-.078-.207-.155-.336-.1a3.876,3.876,0,0,0-.517-.621c-.052-.026-.1.026-.129.052.026.181.233.259.233.44a.1.1,0,0,0-.078.026.947.947,0,0,0,.259.414,7.12,7.12,0,0,0-3.181-1.267,2.114,2.114,0,0,0-.7-.026c.052-.517.026-1.112.026-1.655l-.052-.129C21.739,25.451,22,25.374,22.23,25.425Zm.466-2.379A10.907,10.907,0,0,1,28.98,26.02l-.207.078a4.676,4.676,0,0,0-.879,1.034c-.026-.129-.207-.207-.233-.284a1.167,1.167,0,0,0-.647-.8c-.233-.052-.284-.388-.569-.284-.233-.207-.543-.052-.75.052v.026A8.825,8.825,0,0,0,21.971,24.7c-.078,0-.1.052-.181.052.078-.052.026-.207.026-.259a.153.153,0,0,0-.207-.078.368.368,0,0,0-.052.155,8.778,8.778,0,0,0-.026-1.655C21.894,23.02,22.308,22.968,22.7,23.046ZM23.808,38.33a6.8,6.8,0,0,1,1.474.336c.129,0,.233,0,.31-.1-.026-.207.207-.284.181-.491.1-.181.026-.388.181-.543a.7.7,0,0,0-.155-.595c-.129-.078-.233.026-.362.052-.155.1-.1.414-.336.336a.206.206,0,0,1-.233.052c-.026-.026-.052-.026-.052-.078.181-.1.491-.026.517-.31.129-.129.336-.078.466-.207.1-.155.129-.259.233-.388,0-.052.026-.129.026-.181.026.078.026.207.155.233.155.052.207-.078.233-.181,0-.052.026-.129.078-.078.155.129.336.026.517.026a1.464,1.464,0,0,1,.466-.078,5.651,5.651,0,0,1-.853,1.836c-.155.181-.259.362-.44.569a.939.939,0,0,0-.181-.44l-.078.026c-.1.207-.284.336-.259.569-.155.233-.491.026-.7.155-.233.078-.388-.181-.595-.233a5.524,5.524,0,0,1-.7-.233C23.73,38.382,23.756,38.33,23.808,38.33Zm1.6-8.767c-.31.336-.7.7-.983,1.06l-.052-.129a4.974,4.974,0,0,0-2.638-1.086l-.155.026v-1.6l-.052-.129a14.739,14.739,0,0,1,1.914.388A7.272,7.272,0,0,1,25.566,29.3l.155.052Zm2.483,5.017c-.1.31-.1.7-.181,1.009-.026.052-.026.129-.052.181a1.378,1.378,0,0,0-.414-.595c-.207-.1-.078-.362-.233-.491l-.181-.181A2.374,2.374,0,0,0,27.894,34.58Zm-1.06-3.129c.207.052.31.259.517.31a3.631,3.631,0,0,1,.336.879c-.181.181-.181.569-.517.517-.078-.207.155-.284.1-.491.052-.052.155-.078.181-.181-.026-.181-.233-.155-.259-.31-.078-.1-.207-.1-.284-.129-.233-.1-.44.466-.491,0,.078-.052.129-.155.052-.233-.207-.1-.233-.362-.414-.491-.284,0-.569-.129-.828-.052-.181-.052-.388-.181-.543.026,0,.155-.1.259-.129.414a.408.408,0,0,1-.181-.181c.517-.595,1.138-1.19,1.655-1.733l.026-.078a7.4,7.4,0,0,1,.776,1.06C26.911,31.037,26.471,31.3,26.834,31.451ZM23.5,37.115c0,.233-.31.207-.466.336-.078-.026-.026-.129,0-.181C23.187,37.193,23.29,37.089,23.5,37.115ZM23.006,32.2c-.1.026-.207.1-.284.052a.794.794,0,0,0-.388-.259c-.129.026-.207.181-.31.1.233-.233.595-.259.75-.595a.984.984,0,0,0,.078-.466c-.052-.078-.155-.155-.233-.078-.129.207-.388.233-.517.44l-.414-.155c-.078-.388.026-.879-.078-1.216a6.761,6.761,0,0,0,.7.155,6.176,6.176,0,0,1,1.681.75c-.129.052-.233.207-.336.284,0,.1.129.078.155.155l.129-.052C23.678,31.787,23.058,31.71,23.006,32.2Zm3.31,9.207c-.31-.284.207-.517.284-.776-.052-.259-.362-.44-.595-.517-.129-.078-.078-.207-.078-.284.1-.1.233-.207.259-.336l.052.129.724.75c0,.181.026.31.207.388.078.026.181-.026.233,0h-.052a6.837,6.837,0,0,1-1.06.879l-.078.129C26.187,41.589,26.394,41.511,26.316,41.408Zm1.4-1.733c-.155-.155-.155-.414-.414-.414-.1,0-.129.078-.129.155,0,.052.026.1-.026.129L26.6,39.08a3.391,3.391,0,0,0,.647-.7,8.427,8.427,0,0,0,1.034-2.25.2.2,0,0,0,.259.026c.078-.078.1-.207.052-.259l-.181-.233a4.884,4.884,0,0,0,.078-1.06l.129.052c.543,0,1.112.026,1.655-.026l-.078.1a8.879,8.879,0,0,1-2.379,5.638C27.868,40.089,27.687,39.908,27.713,39.675Zm4.81-6.388c.026.207-.026.44.1.621l-1.707.026a.368.368,0,0,1-.155.052l.052-.078a9.046,9.046,0,0,0-.905-3.672c-.026-.517-.517-.853-.7-1.293-.362-.259-.491-.7-.931-.957-.078-.1-.129-.233-.233-.259l.207-.052a13.571,13.571,0,0,0,1.19-1.267A11.6,11.6,0,0,1,32.523,33.287ZM31.98,29.1a11.893,11.893,0,0,0-10.655-6.776,12.586,12.586,0,0,0-5.405,1.267,12.106,12.106,0,0,0-6.1,7.4A11.964,11.964,0,0,0,14.6,44.1a12.211,12.211,0,0,0,11.586.957,12,12,0,0,0,6.569-7.681A11.866,11.866,0,0,0,31.98,29.1Z" transform="translate(0.916 -13.787)" fill="#fff"/>
        <path id="Path_1763" data-name="Path 1763" d="M24.644,25.017a.218.218,0,0,0,.052.181c.233.1.259.44.595.362.1-.1-.052-.233-.026-.362a.454.454,0,0,0-.259-.233c-.155.155-.259-.052-.362.052" transform="translate(2.822 -13.457)" fill="#fff"/>
        <path id="Path_1764" data-name="Path 1764" d="M20.441,24.193c.31.388.853.181,1.241.1a.679.679,0,0,0,.75-.207v-.052A1.191,1.191,0,0,0,21.5,23.7l-.853.362c-.078-.026-.207-.078-.233.026-.026.052,0,.078.026.1" transform="translate(2.292 -13.615)" fill="#fff"/>
      </g>
    </g>
  </g>
</svg>
