<svg xmlns="http://www.w3.org/2000/svg" xmlns:xlink="http://www.w3.org/1999/xlink" width="40" height="40" viewBox="0 0 40 40">
  <defs>
    <clipPath id="clip-path">
      <rect id="Image_12" data-name="Image 12" width="40" height="40" transform="translate(-5 13)" fill="#e44c98"/>
    </clipPath>
  </defs>
  <g id="Mask_Group_61" data-name="Mask Group 61" transform="translate(5 -13)" clip-path="url(#clip-path)">
    <g id="online-shopping" transform="translate(-5 13)">
      <path id="Path_1930" data-name="Path 1930" d="M38.631,1.932H1.37A1.371,1.371,0,0,0,0,3.3V28.589a1.371,1.371,0,0,0,1.37,1.37h7.7l.158.735A1.969,1.969,0,0,0,10.8,32.209a3.945,3.945,0,1,0,6.913.03h3.276a3.945,3.945,0,1,0,6.924-.011,1.968,1.968,0,0,0,1.715-1.534l4.263-19.84h4.932V28.589a.2.2,0,0,1-.2.2h-6.4a.587.587,0,0,0,0,1.174h6.4A1.371,1.371,0,0,0,40,28.589V3.3a1.371,1.371,0,0,0-1.369-1.37ZM14.25,36.895a2.771,2.771,0,1,1,2.771-2.771,2.774,2.774,0,0,1-2.771,2.771Zm10.207,0a2.771,2.771,0,1,1,2.771-2.771,2.774,2.774,0,0,1-2.771,2.771Zm12.7-27.215a1.956,1.956,0,0,0-1.316-3.4H33.995a3.882,3.882,0,0,0-3.775,3.05l-.076.353H24.6a.587.587,0,0,0,0,1.174h5.29l-.6,2.773H7.983A1.956,1.956,0,0,0,6.07,15.993l1.447,6.736a.587.587,0,1,0,1.148-.246L7.218,15.747a.783.783,0,0,1,.765-.947H29.77a.587.587,0,0,0,.574-.464l1.023-4.764A2.7,2.7,0,0,1,34,7.45h1.846a.783.783,0,0,1,0,1.565H34a1.128,1.128,0,0,0-1.1.887L28.483,30.447a.787.787,0,0,1-.765.618h-.772a3.936,3.936,0,0,0-4.978,0H16.739a3.936,3.936,0,0,0-4.978,0h-.62a.787.787,0,0,1-.765-.618l-1.2-5.606a.587.587,0,1,0-1.148.246l.794,3.7H1.37a.2.2,0,0,1-.2-.2V10.853H21.887a.587.587,0,0,0,0-1.174H1.174V3.3a.2.2,0,0,1,.2-.2H38.631a.2.2,0,0,1,.2.2V9.679Z" fill="#e44c98"/>
      <circle id="Ellipse_239" data-name="Ellipse 239" cx="1.145" cy="1.145" r="1.145" transform="translate(3.194 5.226)" fill="#e44c98"/>
      <circle id="Ellipse_240" data-name="Ellipse 240" cx="1.145" cy="1.145" r="1.145" transform="translate(6.675 5.226)" fill="#e44c98"/>
      <circle id="Ellipse_241" data-name="Ellipse 241" cx="1.145" cy="1.145" r="1.145" transform="translate(10.155 5.226)" fill="#e44c98"/>
      <path id="Path_1931" data-name="Path 1931" d="M21.08,26.165H17.628a.587.587,0,0,0-.585.635l.178,2.161a.587.587,0,0,0,.585.539h3.1a.587.587,0,0,0,.585-.539l.178-2.161a.587.587,0,0,0-.585-.635Zm-.719,2.161H18.346l-.081-.987h2.178Z" fill="#e44c98"/>
      <path id="Path_1932" data-name="Path 1932" d="M9.569,19.236a.587.587,0,0,0,.574.464H14.25a.59.59,0,0,0,.585-.635L14.657,16.9a.587.587,0,0,0-.585-.539H9.678a.591.591,0,0,0-.574.71Zm3.963-1.7.081.987h-3l-.212-.987Z" fill="#e44c98"/>
      <g id="Group_1695" data-name="Group 1695">
        <path id="Path_1933" data-name="Path 1933" d="M11.784,26.165a.587.587,0,0,0-.574.71l.464,2.161a.587.587,0,0,0,.574.464h2.809a.587.587,0,0,0,.585-.635L15.464,26.7a.587.587,0,0,0-.585-.539Zm.939,2.161-.212-.987h1.828l.081.987Z" fill="#e44c98"/>
      </g>
      <path id="Path_1934" data-name="Path 1934" d="M10.731,21.265a.587.587,0,0,0-.574.71l.464,2.161a.587.587,0,0,0,.574.464h3.458a.587.587,0,0,0,.585-.635L15.061,21.8a.587.587,0,0,0-.585-.539Zm.939,2.161-.212-.987h2.478l.081.987Z" fill="#e44c98"/>
      <path id="Path_1935" data-name="Path 1935" d="M16.414,19.161A.587.587,0,0,0,17,19.7h4.71a.587.587,0,0,0,.585-.539L22.471,17a.591.591,0,0,0-.585-.635H16.821a.591.591,0,0,0-.585.635Zm4.836-1.622-.081.987H17.539l-.081-.987Z" fill="#e44c98"/>
      <path id="Path_1936" data-name="Path 1936" d="M24.054,24.6h3.611a.587.587,0,0,0,.574-.464l.464-2.161a.587.587,0,0,0-.574-.71h-3.9a.587.587,0,0,0-.585.539l-.178,2.161a.587.587,0,0,0,.585.635Zm.719-2.161H27.4l-.212.987h-2.5Z" fill="#e44c98"/>
      <path id="Path_1937" data-name="Path 1937" d="M24.457,19.7h4.261a.587.587,0,0,0,.574-.464l.464-2.161a.591.591,0,0,0-.574-.71H24.635a.587.587,0,0,0-.585.539l-.178,2.161a.59.59,0,0,0,.585.635Zm.719-2.161h3.28l-.212.987H25.094Z" fill="#e44c98"/>
      <path id="Path_1938" data-name="Path 1938" d="M21.483,21.265H17.224a.587.587,0,0,0-.585.635l.178,2.161a.587.587,0,0,0,.585.539h3.9a.587.587,0,0,0,.585-.539l.178-2.161a.587.587,0,0,0-.585-.635Zm-.719,2.161H17.943l-.081-.987h2.984Z" fill="#e44c98"/>
      <path id="Path_1939" data-name="Path 1939" d="M23.65,29.5h2.962a.587.587,0,0,0,.574-.464l.464-2.161a.587.587,0,0,0-.574-.71H23.828a.587.587,0,0,0-.585.539l-.178,2.161a.587.587,0,0,0,.585.635Zm.719-2.161H26.35l-.212.987h-1.85Z" fill="#e44c98"/>
      <path id="Path_1940" data-name="Path 1940" d="M14.25,33.116a1.007,1.007,0,1,0,1.007,1.007A1.007,1.007,0,0,0,14.25,33.116Z" fill="#e44c98"/>
      <path id="Path_1941" data-name="Path 1941" d="M24.457,33.116a1.007,1.007,0,1,0,1.007,1.007A1.007,1.007,0,0,0,24.457,33.116Z" fill="#e44c98"/>
    </g>
  </g>
</svg>
