<svg xmlns="http://www.w3.org/2000/svg" xmlns:xlink="http://www.w3.org/1999/xlink" width="24" height="24" viewBox="0 0 24 24">
  <defs>
    <clipPath id="clip-path">
      <rect id="Rectangle_783" data-name="Rectangle 783" width="24" height="24" transform="translate(98 558)" fill="#fff"/>
    </clipPath>
  </defs>
  <g id="Mask_Group_56" data-name="Mask Group 56" transform="translate(-98 -558)" clip-path="url(#clip-path)">
    <g id="live" transform="translate(97.986 557.98)">
      <g id="Group_1693" data-name="Group 1693">
        <path id="Path_1905" data-name="Path 1905" d="M4.751,4.981A.866.866,0,0,0,4.808,3.7a.876.876,0,0,0-1.285.042A11.188,11.188,0,0,0,.014,11.369a12.413,12.413,0,0,0,.915,5.169,11.6,11.6,0,0,0,2.608,3.79.873.873,0,0,0,1.5-.474,1.039,1.039,0,0,0-.417-.929A9.625,9.625,0,0,1,2.092,9.55,9.371,9.371,0,0,1,4.751,4.981Z" fill="#fff"/>
        <path id="Path_1906" data-name="Path 1906" d="M24.01,11.43c-.023-.3-.052-.605-.094-.905a11.357,11.357,0,0,0-3.429-6.792A.856.856,0,0,0,19.23,4.892c.084.1.188.192.277.291a9.645,9.645,0,0,1,2.641,8.485,9.529,9.529,0,0,1-2.838,5.4.861.861,0,1,0,1.2,1.224,11.389,11.389,0,0,0,3.5-8.269C24.01,11.824,24.019,11.627,24.01,11.43Z" fill="#fff"/>
        <path id="Path_1907" data-name="Path 1907" d="M15.877,6.032a.8.8,0,0,0-.849.474.863.863,0,0,0,.2,1.008,6.242,6.242,0,0,1,.009,9.005,1.04,1.04,0,0,0-.216.3.84.84,0,0,0,.291,1.046.855.855,0,0,0,1.14-.131,8,8,0,0,0,2.43-5.713,7.912,7.912,0,0,0-2.425-5.7A1.206,1.206,0,0,0,15.877,6.032Z" fill="#fff"/>
        <path id="Path_1908" data-name="Path 1908" d="M8.166,8.232c.2-.263.436-.492.652-.746a.823.823,0,0,0,.141-.924.884.884,0,0,0-.919-.507,2.013,2.013,0,0,0-.5.3,7.948,7.948,0,0,0,.052,11.388.839.839,0,0,0,.882.235.815.815,0,0,0,.586-.638.965.965,0,0,0-.361-.924A6.218,6.218,0,0,1,8.166,8.232Z" fill="#fff"/>
        <path id="Path_1909" data-name="Path 1909" d="M12.031,10.3a1.717,1.717,0,1,0,1.7,1.731A1.712,1.712,0,0,0,12.031,10.3Z" fill="#fff"/>
      </g>
    </g>
  </g>
</svg>
