<svg xmlns="http://www.w3.org/2000/svg" xmlns:xlink="http://www.w3.org/1999/xlink" width="26" height="26" viewBox="0 0 26 26">
  <defs>
    <clipPath id="clip-path">
      <rect id="Rectangle_810" data-name="Rectangle 810" width="26" height="26" transform="translate(31.773 22)" fill="#fff"/>
    </clipPath>
  </defs>
  <g id="Mask" transform="translate(-31.773 -22)" clip-path="url(#clip-path)">
    <g id="Page-1" transform="translate(31.773 25.867)">
      <g id="_022---Surgical-Mask" data-name="022---Surgical-Mask">
        <path id="Shape" d="M5.719,4.723h.009a6.8,6.8,0,0,0,5.2-2.64,2.144,2.144,0,0,1,3.329,0,6.8,6.8,0,0,0,5.2,2.644h.008l1.719,0V4.3a.859.859,0,0,0-.859-.859h-.649a5.728,5.728,0,0,1-4.421-2.17,3.433,3.433,0,0,0-5.328,0,5.728,5.728,0,0,1-4.421,2.17H4.859A.859.859,0,0,0,4,4.3v.43Z" transform="translate(0.297 0)" fill="#fff"/>
        <path id="Shape-2" data-name="Shape" d="M19.468,5.434h-.009A7.658,7.658,0,0,1,13.59,2.473a1.285,1.285,0,0,0-2,0A7.612,7.612,0,0,1,5.719,5.434L4,5.437V8.875a8.98,8.98,0,0,0,7.929,8.986,5.921,5.921,0,0,0,1.329,0,8.98,8.98,0,0,0,7.929-8.986V5.437ZM7.074,6.732a36.294,36.294,0,0,0,11.039,0,.43.43,0,1,1,.132.849,36.8,36.8,0,0,1-5.652.432,36.8,36.8,0,0,1-5.652-.432.43.43,0,0,1,.132-.849ZM6.6,9.605a.43.43,0,0,1,.538-.283,18.264,18.264,0,0,0,10.916,0,.43.43,0,1,1,.255.821,19.174,19.174,0,0,1-5.713.875,19.174,19.174,0,0,1-5.715-.874A.43.43,0,0,1,6.6,9.605Zm11.767,3.523a13.148,13.148,0,0,1-11.542,0,.43.43,0,1,1,.37-.773,12.3,12.3,0,0,0,10.8,0,.43.43,0,1,1,.37.773Z" transform="translate(0.297 0.148)" fill="#fff"/>
        <path id="Shape-3" data-name="Shape" d="M3.987,12.051A5.035,5.035,0,0,1,0,7.467V5.319A1.719,1.719,0,0,1,1.719,3.6H3.493a1.571,1.571,0,0,0-.056.43v.43H1.719a.862.862,0,0,0-.859.859V7.467a4.037,4.037,0,0,0,2.844,3.6,9.557,9.557,0,0,0,.284.984Z" transform="translate(0 0.267)" fill="#fff"/>
        <path id="Shape-4" data-name="Shape" d="M24.275,5.319V7.467a5.035,5.035,0,0,1-3.987,4.585,9.556,9.556,0,0,0,.284-.984,4.037,4.037,0,0,0,2.844-3.6V5.319a.862.862,0,0,0-.859-.859H20.838V4.03a1.571,1.571,0,0,0-.056-.43h1.775A1.719,1.719,0,0,1,24.275,5.319Z" transform="translate(1.505 0.267)" fill="#fff"/>
      </g>
    </g>
  </g>
</svg>
