<svg xmlns="http://www.w3.org/2000/svg" xmlns:xlink="http://www.w3.org/1999/xlink" width="26" height="26" viewBox="0 0 26 26">
  <defs>
    <clipPath id="clip-path">
      <rect id="Rectangle_810" data-name="Rectangle 810" width="26" height="26" transform="translate(30.773 18)" fill="#fff"/>
    </clipPath>
  </defs>
  <g id="Review" transform="translate(-30.773 -18)" clip-path="url(#clip-path)">
    <g id="review-2" data-name="review" transform="translate(30.635 18.427)">
      <path id="Path_1983" data-name="Path 1983" d="M26.137,19.656Z" fill="#fff"/>
      <g id="Group_1727" data-name="Group 1727">
        <g id="Group_1726" data-name="Group 1726">
          <path id="Path_1984" data-name="Path 1984" d="M17.152,9.6c-.079.079-.133.137-.191.2-.579.565-1.159,1.134-1.738,1.694a.82.82,0,0,0-.27.786c.147.81.28,1.625.417,2.44.01.069.02.142.039.255-.1-.044-.167-.074-.231-.108-.717-.373-1.434-.746-2.146-1.129a.86.86,0,0,0-.894,0c-.7.378-1.4.741-2.1,1.11-.083.044-.167.083-.295.142.083-.491.157-.938.236-1.38s.147-.894.231-1.341a.792.792,0,0,0-.255-.766c-.589-.565-1.169-1.139-1.758-1.709a.991.991,0,0,0-.211-.123c.02-.029.039-.059.059-.083.4-.059.8-.123,1.193-.177.486-.069.977-.142,1.463-.206a.832.832,0,0,0,.683-.511c.344-.722.707-1.439,1.061-2.156.039-.079.083-.152.137-.26a2.783,2.783,0,0,1,.137.25c.354.712.712,1.419,1.046,2.131a.919.919,0,0,0,.786.555c.82.1,1.635.231,2.45.349A1.215,1.215,0,0,1,17.152,9.6Z" fill="#fff"/>
        </g>
        <path id="Path_1985" data-name="Path 1985" d="M14.544,9.212a.919.919,0,0,1-.786-.555c-.339-.717-.7-1.424-1.046-2.131-.039-.074-.083-.147-.137-.25-.059.108-.1.182-.137.26-.354.717-.712,1.434-1.061,2.156a.832.832,0,0,1-.683.511c-.491.064-.977.137-1.463.206l-1.193.177c-.02.029-.039.059-.059.083a1.129,1.129,0,0,1,.211.123c.589.57,1.169,1.144,1.758,1.709a.792.792,0,0,1,.255.766c-.083.447-.152.894-.231,1.341s-.152.889-.236,1.38c.128-.064.211-.1.295-.142.7-.368,1.4-.732,2.1-1.11a.86.86,0,0,1,.894,0c.712.383,1.429.756,2.146,1.129.064.034.133.064.231.108-.015-.113-.025-.187-.039-.255-.137-.815-.27-1.625-.417-2.44a.809.809,0,0,1,.27-.786c.584-.56,1.159-1.129,1.738-1.694.059-.059.118-.118.191-.2a1.033,1.033,0,0,0-.157-.044C16.179,9.442,15.364,9.315,14.544,9.212Z" fill="#fff"/>
        <path id="Path_1986" data-name="Path 1986" d="M24.758,1.522A2.556,2.556,0,0,0,23.766.393,2.712,2.712,0,0,0,22.337,0H2.809a2.714,2.714,0,0,0-1.35.349,2.537,2.537,0,0,0-.864.8A2.7,2.7,0,0,0,.137,2.681v16.3A2.841,2.841,0,0,0,.57,20.51a2.665,2.665,0,0,0,1.679,1.164,3.392,3.392,0,0,0,.771.074q2.954.007,5.9,0a.52.52,0,0,1,.4.167c.81.82,1.625,1.63,2.44,2.44.177.172.383.363.565.525l.25.265.29-.265c.309-.3.668-.658,1-.987.658-.658,1.321-1.316,1.974-1.979a.513.513,0,0,1,.4-.167q2.976.007,5.951,0a2.729,2.729,0,0,0,2.332-1.124,2.76,2.76,0,0,0,.491-1.6l0-16.356A2.883,2.883,0,0,0,24.758,1.522ZM19.18,9.663c-.84.82-1.674,1.645-2.529,2.455a.517.517,0,0,0-.172.53c.211,1.154.408,2.313.6,3.467a.741.741,0,0,1-.285.8.756.756,0,0,1-.845.01c-1.066-.565-2.136-1.12-3.2-1.689a.329.329,0,0,0-.354,0q-1.62.862-3.241,1.7a.732.732,0,0,1-1.1-.717c.1-.579.206-1.218.314-1.851.1-.6.206-1.213.319-1.817a.372.372,0,0,0-.133-.383c-.854-.82-1.694-1.65-2.548-2.47A.8.8,0,0,1,5.7,9a.731.731,0,0,1,.707-.648C7.218,8.23,8.023,8.112,8.834,8c.378-.054.751-.113,1.129-.157a.393.393,0,0,0,.339-.255q.788-1.628,1.6-3.241a.722.722,0,0,1,.879-.427.775.775,0,0,1,.486.442c.53,1.075,1.066,2.146,1.586,3.221a.414.414,0,0,0,.358.26c1.164.162,2.323.334,3.481.5a.8.8,0,0,1,.7.447A.741.741,0,0,1,19.18,9.663Z" fill="#fff"/>
      </g>
    </g>
  </g>
</svg>
